<svg width="81" height="81" viewBox="0 0 81 81" fill="none" xmlns="http://www.w3.org/2000/svg">
<path fill-rule="evenodd" clip-rule="evenodd" d="M40.5894 0.269531C62.7894 0.269531 80.7794 18.2595 80.7794 40.4595C80.7794 62.6595 62.7894 80.6495 40.5894 80.6495C18.3894 80.6495 0.399414 62.6595 0.399414 40.4595C0.399414 18.2595 18.3894 0.269531 40.5894 0.269531ZM40.5894 2.02953C61.8194 2.02953 79.0194 19.2295 79.0194 40.4595C79.0194 61.6895 61.8194 78.8895 40.5894 78.8895C19.3594 78.8895 2.15941 61.6895 2.15941 40.4595C2.15941 19.2295 19.3594 2.02953 40.5894 2.02953Z" fill="#1B1918"/>
<path fill-rule="evenodd" clip-rule="evenodd" d="M40.5894 0.269531C62.7894 0.269531 80.7794 18.2595 80.7794 40.4595C80.7794 62.6595 62.7894 80.6495 40.5894 80.6495C18.3894 80.6495 0.399414 62.6595 0.399414 40.4595C0.399414 18.2595 18.3894 0.269531 40.5894 0.269531Z" stroke="#1B1918" stroke-width="0.2"/>
<path fill-rule="evenodd" clip-rule="evenodd" d="M40.5902 2.03027C61.8202 2.03027 79.0202 19.2303 79.0202 40.4603C79.0202 61.6903 61.8202 78.8903 40.5902 78.8903C19.3602 78.8903 2.16016 61.6903 2.16016 40.4603C2.16016 19.2303 19.3602 2.03027 40.5902 2.03027Z" stroke="#1B1918" stroke-width="0.2"/>
<path fill-rule="evenodd" clip-rule="evenodd" d="M40.5902 2.03027C47.3402 2.03027 53.9602 3.81027 59.8002 7.18027C65.6502 10.5503 70.5002 15.4003 73.8702 21.2403C77.2402 27.0903 79.0202 33.7103 79.0202 40.4603C79.0202 47.2103 77.2402 53.8303 73.8702 59.6803C70.5002 65.5203 65.6502 70.3703 59.8102 73.7403C53.9602 77.1103 47.3402 78.8903 40.5902 78.8903C33.8402 78.8903 27.2202 77.1103 21.3802 73.7403C15.5302 70.3703 10.6802 65.5203 7.31016 59.6803C3.94016 53.8303 2.16016 47.2103 2.16016 40.4603C2.16016 33.7103 3.94016 27.0903 7.31016 21.2503C10.6802 15.4003 15.5302 10.5503 21.3702 7.18027C27.2202 3.81027 33.8402 2.03027 40.5902 2.03027Z" fill="#1B1918"/>
<path fill-rule="evenodd" clip-rule="evenodd" d="M40.5902 2.53027C33.9282 2.53027 27.3943 4.28701 21.6197 7.61353C15.856 10.9396 11.0694 15.7263 7.74341 21.4999L7.74322 21.5002C4.41692 27.2644 2.66016 33.7983 2.66016 40.4603C2.66016 47.1222 4.4169 53.6562 7.74341 59.4307C11.0695 65.1944 15.8561 69.981 21.6297 73.307L21.6301 73.3072C27.3943 76.6335 33.9282 78.3903 40.5902 78.3903C47.2519 78.3903 53.7858 76.6336 59.5602 73.3072C65.3242 69.9811 70.111 65.1943 73.4371 59.4304C76.7635 53.6559 78.5202 47.1221 78.5202 40.4603C78.5202 33.7985 76.7635 27.2646 73.4371 21.4902C70.111 15.7263 65.3243 10.9396 59.5506 7.61353L59.5503 7.61334C53.786 4.28704 47.2521 2.53027 40.5902 2.53027ZM21.1206 6.74702C27.0461 3.33353 33.7521 1.53027 40.5902 1.53027C47.4281 1.53027 54.1341 3.33344 60.0497 6.74702C65.976 10.161 70.8893 15.0742 74.3032 20.9904L74.3034 20.9907C77.7169 26.9162 79.5202 33.6222 79.5202 40.4603C79.5202 47.2984 77.7169 54.0044 74.3034 59.9299L74.3032 59.9302C70.8893 65.8463 65.9761 70.7594 60.0601 74.1733L60.0597 74.1735C54.1343 77.587 47.4282 79.3903 40.5902 79.3903C33.7521 79.3903 27.046 77.587 21.1303 74.1733C15.2041 70.7594 10.291 65.8462 6.87709 59.9302L6.8769 59.9299C3.46342 54.0044 1.66016 47.2984 1.66016 40.4603C1.66016 33.6222 3.46339 26.9161 6.87709 21.0004C10.291 15.0742 15.2042 10.1611 21.1203 6.74721L21.1206 6.74702Z" fill="white"/>
<path fill-rule="evenodd" clip-rule="evenodd" d="M15.7393 33.1491C14.5893 32.4591 13.6693 31.5291 12.9993 30.3591C12.3193 29.1791 11.9893 27.8891 11.9893 26.4991C11.9893 25.1191 12.3193 23.8391 12.9993 22.6691C13.6693 21.4791 14.5893 20.5491 15.7393 19.8591C16.8893 19.1691 18.1493 18.8291 19.5293 18.8291C20.6293 18.8291 21.6493 19.0491 22.6093 19.4891C23.5793 19.9291 24.3993 20.5291 25.0993 21.2991C25.1593 21.3591 25.1893 21.4291 25.1893 21.5091C25.1893 21.6091 25.1493 21.6891 25.0793 21.7491L23.5393 23.0791C23.4693 23.1491 23.3893 23.1891 23.3093 23.1891C23.2193 23.1891 23.1493 23.1491 23.0893 23.0791C22.6393 22.5691 22.0993 22.1891 21.4793 21.9091C20.8593 21.6291 20.2093 21.4891 19.5293 21.4891C18.6493 21.4891 17.8193 21.7191 17.0793 22.1691C16.3293 22.6091 15.7293 23.2291 15.2893 23.9991C14.8493 24.7691 14.6293 25.5991 14.6293 26.4991C14.6293 27.3891 14.8493 28.2291 15.2893 28.9991C15.7293 29.7591 16.3293 30.3791 17.0793 30.8291C17.8193 31.2791 18.6493 31.4991 19.5293 31.4991C20.1793 31.4991 20.7993 31.3791 21.3893 31.1291C21.9693 30.8791 22.4893 30.5291 22.9493 30.0591C23.0693 29.9491 23.2093 29.8891 23.3493 29.8891C23.4793 29.8891 23.5793 29.9291 23.6493 29.9991L24.0593 30.3491L24.9093 31.1191C25.0493 31.2191 25.1193 31.3491 25.1193 31.5191C25.1193 31.6191 25.0893 31.7091 25.0193 31.7791C24.3193 32.5291 23.4993 33.1191 22.5493 33.5391C21.5993 33.9591 20.5993 34.1691 19.5293 34.1691C18.1493 34.1691 16.8893 33.8291 15.7393 33.1491Z" fill="white"/>
<path fill-rule="evenodd" clip-rule="evenodd" d="M69.3393 24.5593C69.3293 24.4993 69.3093 24.4393 69.2793 24.3893C69.1093 23.7893 68.8593 23.1993 68.5393 22.6193C68.4293 22.4093 68.2593 22.2993 68.0293 22.2993C67.9293 22.2993 67.8193 22.3393 67.7093 22.4093C67.6193 22.4693 67.4193 22.6093 67.0893 22.8493C66.7593 23.0793 66.5393 23.2293 66.4293 23.2993C66.2593 23.4393 66.1693 23.5993 66.1693 23.7893C66.1693 23.9293 66.2093 24.0693 66.2793 24.2093C66.6293 24.9093 66.8093 25.6693 66.8093 26.4793C66.8093 26.9493 66.7393 27.4193 66.6093 27.8793C66.4493 28.3993 66.2193 28.8793 65.9093 29.3293C65.5693 29.8093 65.1593 30.2093 64.6693 30.5493C64.0693 30.9793 63.4193 31.2493 62.7093 31.3593C62.5293 31.3893 62.3593 31.3993 62.1793 31.4093H62.1693C62.1293 31.4093 62.0993 31.4193 62.0593 31.4193C62.0293 31.4193 61.9893 31.4193 61.9593 31.4193C61.9393 31.4193 61.9393 31.4193 61.9293 31.4193C61.8593 31.4193 61.7993 31.4193 61.7293 31.4093C61.7193 31.4093 61.7093 31.4093 61.7093 31.4093C61.6493 31.4093 61.5893 31.4093 61.5293 31.3993C61.4893 31.3993 61.4593 31.3993 61.4193 31.3893C61.4093 31.3893 61.3893 31.3893 61.3693 31.3893C61.1093 31.3593 60.8593 31.3093 60.6093 31.2393C60.4093 31.1793 60.2293 31.1193 60.0493 31.0393C59.5993 30.8493 59.1793 30.5893 58.7793 30.2593C58.7093 30.1993 58.6393 30.1393 58.5793 30.0793C58.5693 30.0693 58.5593 30.0593 58.5493 30.0493C58.5093 30.0093 58.4593 29.9593 58.4193 29.9193C58.3893 29.8893 58.3593 29.8493 58.3293 29.8193C58.2993 29.7993 58.2793 29.7693 58.2593 29.7493C58.2293 29.7193 58.1993 29.6793 58.1693 29.6493C57.8993 29.3193 57.6793 28.9593 57.4993 28.5593C57.1993 27.8993 57.0493 27.2093 57.0493 26.4993C57.0493 26.3493 57.0493 26.2093 57.0593 26.0693C57.0693 26.0393 57.0693 25.9993 57.0693 25.9693C57.0793 25.9593 57.0793 25.9593 57.0793 25.9493C57.1093 25.6893 57.1593 25.4293 57.2293 25.1793C57.5493 24.0393 58.2093 23.1193 59.1993 22.4193C59.7193 22.0293 60.2993 21.7693 60.9493 21.6293C61.5893 21.4993 62.2393 21.4893 62.8693 21.6093C63.1693 21.6593 63.3493 21.5593 63.4293 21.2993L63.9293 19.5093C63.9493 19.3793 63.9293 19.2593 63.8793 19.1593C63.8293 19.0593 63.7493 18.9893 63.6393 18.9593L63.5993 18.9493C62.5793 18.7293 61.5493 18.7193 60.5193 18.8993C60.4693 18.9093 60.4193 18.9193 60.3693 18.9293C60.3593 18.9293 60.3493 18.9293 60.3293 18.9293C60.3293 18.9393 60.3193 18.9393 60.3093 18.9393C59.6993 19.0693 59.0993 19.2793 58.5193 19.5593C57.5793 20.0193 56.7593 20.6793 56.0693 21.5393C55.4793 22.2293 55.0393 23.0193 54.7493 23.8593C54.4593 24.7093 54.3193 25.5693 54.3193 26.4593C54.3193 26.5793 54.3193 26.7093 54.3193 26.8393C54.3393 27.1293 54.3593 27.4193 54.4093 27.7193C54.5793 28.8493 54.9793 29.8993 55.6293 30.8793C56.0993 31.6193 56.6993 32.2493 57.4293 32.7693C57.7793 33.0193 58.1393 33.2393 58.5293 33.4293C58.5493 33.4393 58.5593 33.4493 58.5793 33.4493C58.8093 33.5693 59.0393 33.6693 59.2893 33.7593C60.1293 34.0593 60.9993 34.2093 61.8893 34.2093C62.3193 34.2093 62.7393 34.1793 63.1493 34.1193C63.1493 34.1193 63.1593 34.1093 63.1693 34.1093C63.6693 34.0393 64.1493 33.9093 64.6093 33.7293C64.7993 33.6593 64.9893 33.5893 65.1793 33.4993C66.2193 33.0193 67.0993 32.3393 67.7893 31.4393C68.3793 30.7393 68.8193 29.9593 69.1193 29.1093C69.2893 28.6293 69.4093 28.1293 69.4793 27.6293C69.6393 26.6093 69.5993 25.5893 69.3393 24.5593Z" fill="white"/>
<path fill-rule="evenodd" clip-rule="evenodd" d="M41.9196 33.85C41.8396 33.77 41.8096 33.68 41.8096 33.58V26.12C41.8096 26.01 41.8396 25.91 41.9196 25.84C41.9996 25.76 42.0896 25.72 42.1896 25.72H46.9196C47.4596 25.72 47.9196 25.53 48.3196 25.14C48.7096 24.76 48.8996 24.3 48.8996 23.76C48.8996 23.2 48.7096 22.73 48.3196 22.35C47.9196 21.96 47.4596 21.77 46.9196 21.77H42.1896C42.0896 21.77 41.9996 21.73 41.9196 21.65C41.8396 21.57 41.8096 21.48 41.8096 21.36V19.4C41.8096 19.29 41.8396 19.19 41.9196 19.11C41.9996 19.03 42.0896 19 42.1896 19H46.9196C47.7696 19 48.5596 19.21 49.2896 19.64C50.0096 20.06 50.5896 20.64 51.0196 21.38C51.4396 22.11 51.6596 22.9 51.6596 23.76C51.6596 24.61 51.4396 25.4 51.0196 26.12C50.5896 26.86 50.0096 27.44 49.2896 27.86C48.5596 28.29 47.7696 28.5 46.9196 28.5H44.9896C44.8296 28.5 44.7196 28.53 44.6696 28.57C44.6096 28.61 44.5796 28.7 44.5796 28.82V33.58C44.5796 33.7 44.5396 33.79 44.4596 33.86C44.3796 33.93 44.2896 33.97 44.1696 33.97H42.1896C42.0896 33.97 41.9996 33.93 41.9196 33.85Z" fill="white"/>
<path fill-rule="evenodd" clip-rule="evenodd" d="M36.0695 33.88C35.9895 33.82 35.9295 33.74 35.8995 33.66L34.9795 30.19C34.9395 30.07 34.8595 29.96 34.7495 29.87C34.6295 29.79 34.5095 29.75 34.3795 29.75H30.0395C29.9395 29.75 29.8595 29.71 29.7895 29.65C29.7295 29.59 29.6995 29.51 29.6995 29.43L30.4295 27.27C30.4295 27.18 30.4695 27.11 30.5295 27.04C30.5895 26.96 30.6795 26.93 30.7795 26.93H33.5695C33.6995 26.93 33.8095 26.88 33.8795 26.79C33.9595 26.7 33.9795 26.59 33.9395 26.45L32.7295 22.09C32.6995 21.98 32.6295 21.88 32.5195 21.79C32.3995 21.71 32.2795 21.66 32.1595 21.66H32.0095C31.8895 21.66 31.7795 21.71 31.6595 21.79C31.5495 21.88 31.4795 21.98 31.4495 22.09L30.7695 24.53C30.7395 24.61 30.6995 24.68 30.6095 24.72C30.5295 24.75 30.4495 24.74 30.3495 24.74L28.2295 24.68C28.1395 24.66 28.0695 24.61 28.0195 24.53C27.9795 24.44 27.9695 24.36 27.9895 24.27L29.3395 19.34C29.3595 19.25 29.4295 19.17 29.5195 19.1C29.6095 19.03 29.6995 19 29.7795 19H34.3895C34.4695 19 34.5595 19.03 34.6595 19.09C34.7595 19.16 34.8295 19.23 34.8595 19.32L38.7895 33.68V33.72C38.7895 33.89 38.6995 33.98 38.5295 33.98H36.3495C36.2495 33.98 36.1595 33.94 36.0695 33.88Z" fill="white"/>
<path fill-rule="evenodd" clip-rule="evenodd" d="M70.8493 38.2194C70.7993 38.1694 70.7393 38.1494 70.6793 38.1494H69.2893C69.2193 38.1494 69.1593 38.1694 69.1093 38.2194C69.0493 38.2694 69.0293 38.3294 69.0293 38.4094V40.9094V41.2694V47.5194C69.0293 47.5894 69.0493 47.6394 69.0993 47.6994C69.1493 47.7494 69.2093 47.7694 69.2893 47.7694H70.6793C70.7493 47.7694 70.8093 47.7494 70.8493 47.6994C70.8993 47.6394 70.9193 47.5894 70.9193 47.5194V41.2694V40.9094V38.4094C70.9193 38.3294 70.8993 38.2694 70.8493 38.2194Z" fill="white"/>
<path fill-rule="evenodd" clip-rule="evenodd" d="M42.61 38.2194C42.56 38.1694 42.5 38.1494 42.44 38.1494H41.05C40.98 38.1494 40.92 38.1694 40.87 38.2194C40.81 38.2694 40.79 38.3294 40.79 38.4094V40.9094V41.2694V47.5194C40.79 47.5894 40.81 47.6394 40.86 47.6994C40.91 47.7494 40.97 47.7694 41.05 47.7694H42.44C42.51 47.7694 42.57 47.7494 42.61 47.6994C42.66 47.6394 42.68 47.5894 42.68 47.5194V41.2694V40.9094V38.4094C42.68 38.3294 42.66 38.2694 42.61 38.2194Z" fill="white"/>
<path fill-rule="evenodd" clip-rule="evenodd" d="M45.3395 39.8794C45.2895 39.8294 45.2695 39.7794 45.2695 39.7094V38.4094C45.2695 38.3294 45.2895 38.2694 45.3395 38.2194C45.3895 38.1694 45.4495 38.1494 45.5095 38.1494H50.0295C50.0995 38.1494 50.1495 38.1694 50.1995 38.2194C50.2495 38.2694 50.2795 38.3294 50.2795 38.4094V39.7094C50.2795 39.7794 50.2595 39.8294 50.2095 39.8794C50.1695 39.9394 50.1095 39.9594 50.0295 39.9594H45.5095C45.4495 39.9594 45.3895 39.9394 45.3395 39.8794Z" fill="white"/>
<path fill-rule="evenodd" clip-rule="evenodd" d="M50.1995 41.5993C50.1495 41.5493 50.0995 41.5293 50.0295 41.5293H45.5095C45.4395 41.5293 45.3895 41.5493 45.3395 41.5893C45.2895 41.6393 45.2695 41.6993 45.2695 41.7693V41.7893V43.0693V47.5193C45.2695 47.5793 45.2895 47.6393 45.3395 47.6893C45.3895 47.7393 45.4495 47.7593 45.5095 47.7593H46.8795C46.9495 47.7593 47.0095 47.7393 47.0595 47.6893C47.1095 47.6393 47.1395 47.5793 47.1395 47.5193V43.5793C47.1395 43.4993 47.1595 43.4393 47.2095 43.3993C47.2595 43.3493 47.3195 43.3293 47.3895 43.3293H49.5995H50.0295C50.1095 43.3293 50.1695 43.2993 50.2095 43.2493C50.2595 43.1993 50.2795 43.1493 50.2795 43.0693V41.7893C50.2795 41.7093 50.2495 41.6493 50.1995 41.5993Z" fill="white"/>
<path fill-rule="evenodd" clip-rule="evenodd" d="M61.6892 47.63V40.35C61.6892 40.26 61.6592 40.19 61.5992 40.13C61.5292 40.07 61.4592 40.04 61.3592 40.04H60.5792C60.5392 40.04 60.4992 40.02 60.4592 39.98C60.4192 39.95 60.4092 39.9 60.4092 39.85V38.44C60.4092 38.38 60.4192 38.34 60.4592 38.3C60.4992 38.26 60.5392 38.25 60.5792 38.25H66.5792C66.6292 38.25 66.6692 38.26 66.6992 38.3C66.7392 38.34 66.7592 38.38 66.7592 38.44V39.85C66.7592 39.9 66.7392 39.95 66.6992 39.98C66.6692 40.02 66.6292 40.04 66.5792 40.04H64.0192C63.9292 40.04 63.8492 40.07 63.7892 40.13C63.7192 40.2 63.6892 40.27 63.6892 40.35V47.63C63.6892 47.68 63.6692 47.73 63.6292 47.76C63.5992 47.79 63.5492 47.81 63.4992 47.81H61.8692C61.7492 47.81 61.6892 47.75 61.6892 47.63Z" fill="white"/>
<path fill-rule="evenodd" clip-rule="evenodd" d="M28.6799 43.55C28.6899 43.49 28.6999 43.43 28.6999 43.37C28.6999 43.35 28.6999 43.33 28.7099 43.31C28.7099 43.27 28.7099 43.22 28.7099 43.17C28.7199 43.14 28.7199 43.11 28.7199 43.08C28.7199 43.04 28.7199 43 28.7199 42.95C28.7199 42.91 28.7199 42.87 28.7199 42.84C28.7199 42.79 28.7199 42.75 28.7099 42.71C28.7099 42.68 28.7099 42.64 28.7099 42.61C28.7099 42.52 28.6999 42.43 28.6899 42.34C28.6899 42.33 28.6799 42.32 28.6799 42.31C28.6599 42.11 28.6199 41.91 28.5699 41.71C28.5599 41.67 28.5499 41.64 28.5299 41.61C28.5299 41.58 28.5099 41.54 28.5099 41.51C28.4899 41.45 28.4699 41.38 28.4399 41.32C28.4399 41.31 28.4399 41.3 28.4399 41.3C28.4099 41.21 28.3799 41.13 28.3399 41.05C28.3399 41.04 28.3399 41.04 28.3299 41.03C28.2499 40.84 28.1599 40.65 28.0599 40.47C27.9899 40.33 27.8799 40.27 27.7299 40.27C27.7099 40.27 27.6899 40.27 27.6799 40.27C27.6299 40.28 27.5699 40.3 27.5199 40.34C27.4599 40.37 27.3299 40.46 27.1199 40.61C26.9099 40.76 26.7699 40.85 26.6999 40.9C26.5899 40.99 26.5299 41.09 26.5299 41.21C26.5299 41.3 26.5499 41.39 26.5999 41.49C26.8299 41.93 26.9399 42.42 26.9399 42.94C26.9399 43.1 26.9299 43.24 26.9099 43.39C26.9099 43.42 26.8999 43.45 26.8999 43.48C26.8899 43.52 26.8799 43.56 26.8699 43.6C26.8599 43.66 26.8499 43.72 26.8299 43.78C26.8299 43.79 26.8299 43.8 26.8199 43.81C26.8099 43.86 26.7899 43.92 26.7699 43.97C26.7599 44 26.7599 44.02 26.7499 44.04C26.7299 44.09 26.7099 44.13 26.6999 44.17C26.6799 44.21 26.6699 44.24 26.6499 44.27C26.6299 44.33 26.5999 44.38 26.5699 44.43C26.5599 44.45 26.5499 44.47 26.5399 44.49C26.4999 44.55 26.4699 44.62 26.4299 44.68C26.4199 44.68 26.4199 44.69 26.4199 44.69C26.3199 44.83 26.2199 44.97 26.0999 45.1C26.0399 45.16 25.9799 45.23 25.9099 45.28C25.8999 45.29 25.8999 45.3 25.8899 45.3C25.8299 45.36 25.7699 45.4 25.7099 45.45C25.6899 45.46 25.6799 45.48 25.6599 45.49C25.5199 45.59 25.3699 45.69 25.2099 45.77C24.9099 45.93 24.5899 46.03 24.2599 46.08C24.2199 46.09 24.1799 46.09 24.1399 46.09C24.0699 46.1 23.9899 46.11 23.9099 46.11C23.8999 46.11 23.8899 46.11 23.8799 46.11C23.7699 46.11 23.6599 46.11 23.5599 46.1C23.5499 46.1 23.5399 46.1 23.5399 46.1C23.5099 46.1 23.4799 46.1 23.4599 46.09C23.4399 46.09 23.4299 46.09 23.4199 46.09C23.3499 46.08 23.2799 46.07 23.2099 46.05C23.1999 46.05 23.1999 46.05 23.1999 46.05C23.1299 46.04 23.0599 46.02 22.9899 46C22.9599 46 22.9299 45.99 22.9099 45.98C22.8499 45.96 22.7999 45.94 22.7399 45.93C22.7199 45.92 22.6999 45.91 22.6699 45.9C22.3799 45.78 22.0899 45.62 21.8199 45.4C21.7999 45.38 21.7799 45.36 21.7599 45.34C21.4099 45.05 21.1499 44.7 20.9599 44.28C20.7699 43.86 20.6799 43.42 20.6799 42.95C20.6799 42.89 20.6799 42.83 20.6799 42.77C20.6799 42.74 20.6899 42.71 20.6899 42.69C20.6899 42.64 20.6899 42.6 20.6999 42.55C20.7099 42.52 20.7099 42.48 20.7199 42.44V42.43C20.7399 42.32 20.7599 42.21 20.7899 42.1C20.8099 42.04 20.8299 41.98 20.8499 41.92C20.8599 41.89 20.8699 41.87 20.8799 41.84C20.9399 41.67 21.0199 41.5 21.1099 41.35C21.1199 41.34 21.1199 41.33 21.1199 41.33C21.1299 41.31 21.1399 41.3 21.1399 41.29C21.1599 41.26 21.1799 41.24 21.1999 41.21C21.2999 41.05 21.4299 40.9 21.5599 40.76C21.5699 40.75 21.5799 40.74 21.5899 40.73C21.6499 40.67 21.7099 40.62 21.7699 40.56C21.7899 40.55 21.8099 40.53 21.8299 40.51C21.8699 40.48 21.9199 40.44 21.9599 40.41C22.0999 40.31 22.2499 40.21 22.4099 40.13C22.6899 39.98 22.9699 39.87 23.2799 39.82C23.3799 39.8 23.4899 39.79 23.5899 39.78C23.7999 39.76 24.0099 39.77 24.2099 39.79C24.2199 39.79 24.2399 39.79 24.2499 39.8C24.4499 39.82 24.6399 39.86 24.8199 39.92C25.0099 39.98 25.1299 39.93 25.1999 39.77L25.6699 38.68C25.6899 38.6 25.6899 38.52 25.6699 38.45C25.6499 38.38 25.5999 38.33 25.5299 38.3L25.5099 38.29C25.1399 38.16 24.7699 38.07 24.3999 38.03H24.3899C24.3199 38.02 24.2499 38.01 24.1799 38.01C24.1599 38.01 24.1399 38.01 24.1299 38C24.0699 38 24.0099 38 23.9599 38C23.9399 38 23.9199 38 23.8999 38C23.8899 38 23.8799 38 23.8599 38C23.8099 38 23.7599 38 23.7099 38C23.6799 38 23.6399 38 23.5999 38C23.5799 38 23.5699 38 23.5499 38C23.5199 38 23.4799 38.01 23.4499 38.01C23.4399 38.01 23.4399 38.01 23.4299 38.01C23.4199 38.01 23.4199 38.01 23.4199 38.01C23.4099 38.01 23.4099 38.01 23.4099 38.01C23.3199 38.02 23.2299 38.03 23.1399 38.04C23.0899 38.05 23.0399 38.06 22.9899 38.06C22.9599 38.07 22.9299 38.07 22.8999 38.08C22.8899 38.08 22.8699 38.08 22.8599 38.09C22.8299 38.09 22.7999 38.1 22.7799 38.1C22.7699 38.1 22.7699 38.1 22.7699 38.11C22.7599 38.11 22.7599 38.11 22.7499 38.11C22.6599 38.13 22.5799 38.15 22.4899 38.17C22.4599 38.18 22.4199 38.19 22.3899 38.2C22.3299 38.22 22.2799 38.24 22.2199 38.26C22.2099 38.26 22.1999 38.26 22.1899 38.27C22.1799 38.27 22.1699 38.28 22.1499 38.28C22.0799 38.31 22.0099 38.33 21.9399 38.36C21.8999 38.38 21.8599 38.4 21.8199 38.42C21.7899 38.43 21.7499 38.44 21.7199 38.46C21.6899 38.47 21.6499 38.49 21.6199 38.51C21.0099 38.8 20.4899 39.23 20.0399 39.77C19.9999 39.82 19.9699 39.87 19.9299 39.91C19.9199 39.93 19.9099 39.95 19.8999 39.96C19.5899 40.36 19.3599 40.79 19.1999 41.26C19.0799 41.6 19.0099 41.94 18.9599 42.28C18.9499 42.4 18.9399 42.52 18.9299 42.64C18.9199 42.79 18.9199 42.94 18.9199 43.1C18.9299 43.84 19.0999 44.54 19.4299 45.21C19.6699 45.72 19.9899 46.17 20.4099 46.56C20.4499 46.6 20.4799 46.63 20.5199 46.66C20.5699 46.7 20.6199 46.74 20.6599 46.78C20.7199 46.82 20.7699 46.86 20.8199 46.9C20.8499 46.93 20.8799 46.96 20.9199 46.98C20.9599 47.01 20.9999 47.03 21.0399 47.06C21.0599 47.08 21.0799 47.09 21.0999 47.11C21.1499 47.14 21.1999 47.17 21.2599 47.2C21.2699 47.21 21.2799 47.22 21.2899 47.23C21.3599 47.27 21.4399 47.31 21.5099 47.35C21.5499 47.37 21.5799 47.38 21.6199 47.4C21.6399 47.41 21.6499 47.42 21.6699 47.43C21.7499 47.46 21.8199 47.5 21.8899 47.53C21.8999 47.53 21.9099 47.53 21.9099 47.54C21.9799 47.56 22.0399 47.59 22.1099 47.61C22.1499 47.63 22.1899 47.64 22.2299 47.65C22.2799 47.67 22.3199 47.68 22.3699 47.7C22.4699 47.73 22.5699 47.75 22.6699 47.78C22.6999 47.78 22.7199 47.79 22.7499 47.79C22.8699 47.82 22.9899 47.84 23.1199 47.86H23.1299C23.1399 47.86 23.1399 47.86 23.1499 47.86C23.2699 47.88 23.3999 47.89 23.5299 47.9C23.5499 47.9 23.5699 47.9 23.5899 47.9C23.6499 47.9 23.7199 47.91 23.7799 47.91H23.7899C23.8399 47.91 23.8899 47.9 23.9399 47.9C23.9499 47.9 23.9699 47.9 23.9899 47.9C24.0599 47.9 24.1299 47.9 24.2099 47.89C24.2199 47.89 24.2399 47.89 24.2499 47.89C24.3799 47.88 24.5099 47.86 24.6299 47.84H24.6399C24.6499 47.84 24.6699 47.83 24.6799 47.83C24.7299 47.82 24.7799 47.81 24.8399 47.8C24.8699 47.79 24.8999 47.78 24.9299 47.78C25.0099 47.76 25.0799 47.74 25.1599 47.72C25.1999 47.71 25.2399 47.7 25.2899 47.68C25.3399 47.67 25.3899 47.65 25.4399 47.63C25.4499 47.63 25.4599 47.63 25.4699 47.62H25.4799C25.5399 47.6 25.5899 47.58 25.6499 47.56C25.6699 47.55 25.6999 47.53 25.7299 47.52C25.7599 47.51 25.7999 47.49 25.8399 47.48C25.8599 47.47 25.8799 47.46 25.8999 47.45C26.5699 47.14 27.1299 46.7 27.5799 46.13C27.9499 45.68 28.2399 45.18 28.4299 44.64C28.5299 44.35 28.6099 44.05 28.6499 43.74C28.6599 43.71 28.6599 43.68 28.6699 43.65C28.6699 43.62 28.6799 43.59 28.6799 43.55Z" fill="white"/>
<path fill-rule="evenodd" clip-rule="evenodd" d="M38.1695 38.2299C38.1195 38.1899 38.0595 38.1699 37.9895 38.1699H36.6595C36.5895 38.1699 36.5295 38.1899 36.4795 38.2399C36.4295 38.2899 36.4095 38.3499 36.4095 38.4099V38.4499V39.4699L36.4195 42.5699H36.4295L36.4395 43.8499C36.4395 43.8699 36.4395 43.8999 36.4295 43.9299C36.4295 43.9699 36.4195 43.9899 36.3995 43.9899C36.3795 43.9899 36.3395 43.9599 36.2895 43.8899C35.8795 43.2299 35.2695 42.2799 34.4495 41.0299C33.6395 39.7699 33.0595 38.8599 32.6995 38.3099C32.6295 38.2099 32.5895 38.1699 32.5895 38.1699H32.4795H32.4695H32.4595H31.1995C31.1195 38.1699 31.0595 38.1899 31.0095 38.2399C30.9595 38.2799 30.9395 38.3399 30.9395 38.4199V38.4999C30.9495 38.5199 30.9695 38.5299 30.9795 38.5499L33.0495 41.9599C33.0795 41.9999 33.1195 42.0499 33.1495 42.1299L33.4195 42.5699L34.1795 43.8199C34.1995 43.8399 34.2095 43.8699 34.2195 43.8899L36.4795 47.6599C36.5295 47.7099 36.5795 47.7399 36.6495 47.7399H37.9895C38.0595 47.7399 38.1195 47.7099 38.1695 47.6599C38.2195 47.6099 38.2495 47.5499 38.2495 47.4799V42.5699V39.6199V39.4299V39.1399V38.4099C38.2495 38.3399 38.2195 38.2799 38.1695 38.2299Z" fill="white"/>
<path fill-rule="evenodd" clip-rule="evenodd" d="M32.8895 44.63L30.9395 41.46V47.47C30.9395 47.55 30.9595 47.61 31.0095 47.66C31.0595 47.71 31.1195 47.73 31.1995 47.73H32.6695C32.7295 47.73 32.7895 47.71 32.8395 47.66C32.8895 47.61 32.9095 47.55 32.9095 47.47V44.66C32.8995 44.65 32.8895 44.64 32.8895 44.63Z" fill="white"/>
<path fill-rule="evenodd" clip-rule="evenodd" d="M13.7094 47.6602V46.2502C13.7094 46.1902 13.7394 46.1502 13.7994 46.1502H14.5494C14.8794 46.1502 15.1494 46.0302 15.3794 45.8002C15.5994 45.5602 15.7094 45.2802 15.7094 44.9502C15.7094 44.6202 15.6894 44.0502 15.4594 43.8302C15.2294 43.6002 14.8694 43.4002 14.5494 43.4002H13.8394C13.7494 43.4002 13.7094 43.3502 13.7094 43.2602V41.8202C13.7094 41.8102 13.7194 41.7902 13.7294 41.7602C13.7494 41.7402 13.7694 41.7302 13.7994 41.7302H13.9894C14.3894 41.6902 14.4894 41.7002 14.6394 41.4102C14.7494 41.2002 14.7294 41.1902 14.7294 40.8802C14.7294 40.2002 14.5594 40.1402 14.4794 40.0702C14.2194 39.8302 13.8294 39.8002 13.5094 39.8002H12.6694C12.5394 39.8002 12.4294 39.8502 12.3294 39.9402C12.2394 40.0302 12.1894 40.1402 12.1894 40.2702V47.6402C12.1894 47.6702 12.1794 47.6902 12.1494 47.7102C12.1294 47.7302 12.1094 47.7402 12.0894 47.7402H10.7494C10.6794 47.7402 10.6494 47.7102 10.6494 47.6402V38.2502C10.6494 38.1902 10.6794 38.1602 10.7494 38.1602H13.5094C14.0294 38.1602 14.4994 38.2802 14.9294 38.5302C15.3594 38.7802 15.6994 39.1202 15.9494 39.5502C16.1994 39.9802 16.3294 40.4502 16.3294 40.9602C16.3294 41.4902 16.1794 41.9902 15.8894 42.4602C16.3494 42.7102 16.7094 43.0702 16.9694 43.5202C17.2394 43.9602 17.3694 44.4402 17.3694 44.9502C17.3694 45.4602 17.2394 45.9302 16.9894 46.3602C16.7394 46.7902 16.3994 47.1302 15.9594 47.3802C15.5294 47.6302 15.0594 47.7602 14.5494 47.7602H13.7994C13.7394 47.7602 13.7094 47.7202 13.7094 47.6602Z" fill="white"/>
<path fill-rule="evenodd" clip-rule="evenodd" d="M57.5891 47.6799C57.5291 47.6399 57.4991 47.5999 57.4791 47.5399L56.8891 45.3299C56.8591 45.2499 56.8091 45.1799 56.7391 45.1199C56.6591 45.0699 56.5891 45.0399 56.5091 45.0399H53.7291C53.6591 45.0399 53.6091 45.0199 53.5691 44.9799C53.5291 44.9399 53.5091 44.8899 53.5091 44.8399L53.9791 43.4599C53.9791 43.3999 53.9991 43.3499 54.0391 43.3099C54.0791 43.2599 54.1291 43.2399 54.2091 43.2399H55.9891C56.0691 43.2399 56.1391 43.2099 56.1891 43.1499C56.2391 43.0899 56.2491 43.0199 56.2191 42.9299L55.4591 40.1399C55.4391 40.0699 55.3891 40.0099 55.3191 39.9499C55.2491 39.8999 55.1691 39.8699 55.0891 39.8699H54.9891C54.9191 39.8699 54.8491 39.8999 54.7691 39.9499C54.6991 40.0099 54.6591 40.0699 54.6391 40.1399L54.1991 41.6999C54.1891 41.7599 54.1491 41.7999 54.0891 41.8199C54.0391 41.8499 53.9891 41.8399 53.9191 41.8399L52.5691 41.7999C52.5091 41.7899 52.4691 41.7599 52.4391 41.6999C52.4091 41.6499 52.4091 41.5899 52.4191 41.5399L53.2791 38.3799C53.2891 38.3299 53.3291 38.2799 53.3891 38.2299C53.4491 38.1899 53.5091 38.1699 53.5591 38.1699H56.5091C56.5591 38.1699 56.6191 38.1899 56.6891 38.2299C56.7491 38.2699 56.7891 38.3199 56.8091 38.3699L59.3291 47.5599V47.5799C59.3291 47.6899 59.2791 47.7499 59.1691 47.7499H57.7691C57.7091 47.7499 57.6491 47.7299 57.5891 47.6799Z" fill="white"/>
<path fill-rule="evenodd" clip-rule="evenodd" d="M32.3793 52.5393C32.0193 51.3593 30.6193 51.2593 29.8393 51.4193C24.3493 52.5693 16.8493 62.1993 18.7493 68.2793C19.2093 69.7493 20.3493 70.3193 21.9693 70.0993C26.5693 69.4793 32.8493 58.5793 33.9493 59.0993C34.2893 59.2593 33.7093 58.3493 32.7993 58.3693C33.0893 58.2493 34.3493 58.1093 35.1293 58.1393C34.9793 57.9093 33.2893 57.7093 31.4493 58.0993C30.1393 58.3693 24.0693 60.2493 24.5093 61.6893C24.6793 62.2393 25.4293 62.7093 25.3793 62.5493C25.1393 61.7493 28.9393 59.5893 31.9693 58.5893C30.0993 61.5193 25.6993 67.8293 22.3293 68.8693C20.9093 69.3193 20.3493 68.6793 20.1193 67.7093C18.8793 62.6693 25.5093 52.6693 29.8693 51.7593C30.5693 51.6093 31.3893 51.7893 31.6093 52.4993C32.0393 53.9093 30.2593 56.0993 29.1293 56.3393C29.0393 56.3593 29.2593 55.5893 29.3193 55.4493C28.9093 55.7593 28.5293 56.5193 28.6393 56.8893C28.7193 57.1293 29.2493 57.5093 29.6193 57.4293C31.3393 57.0693 32.9493 54.3993 32.3793 52.5393ZM34.8393 62.4793C36.6093 62.0493 38.9493 59.0693 38.6493 58.0493C38.5093 57.5993 37.6593 57.3793 37.4293 57.4293C36.7393 57.5693 35.4793 58.3693 34.4993 59.7793C33.7593 60.8493 33.2593 62.0493 33.1593 63.0493C33.1393 63.4393 33.1393 63.7793 33.2593 64.1693C33.3893 64.6093 34.2093 65.0593 34.6993 64.9593C36.3993 64.5993 38.1593 62.1093 39.2293 60.4293C38.9093 61.8893 38.8393 62.6993 38.9393 63.0193C38.9893 63.1893 39.0293 63.2193 39.0593 63.2493C39.2293 63.4693 39.6793 63.7393 39.8293 63.7793C39.9993 63.8293 40.1793 63.8593 40.3593 63.7393C40.8693 63.4093 41.7193 62.0493 42.4393 60.7593C42.3093 61.2893 42.2893 61.7693 42.3993 62.1293C42.4993 62.4593 43.0993 62.9893 43.4293 63.0793C43.4693 63.0793 43.5593 63.0993 43.5893 63.0893C44.2593 62.9493 46.5293 59.5693 46.8593 58.9693C46.6793 59.4493 46.4793 60.2893 46.4693 60.9293C46.4793 61.1893 46.4793 61.3993 46.5293 61.5593C46.6193 61.8493 47.0193 62.1293 47.2893 62.2093C47.4193 62.2593 47.5093 62.2693 47.5893 62.2493C48.2993 62.0993 49.4693 60.2493 50.3893 58.5393C50.1693 59.7093 50.1293 60.3693 50.2093 60.6493C50.2693 60.8293 50.3093 60.8493 50.3393 60.8793C50.5093 61.1093 50.9593 61.3693 51.1093 61.4093C51.2693 61.4593 51.4493 61.4893 51.6393 61.3693C52.1493 61.0293 53.0293 59.6093 53.7593 58.2893C53.7293 58.7293 53.7693 59.1893 53.8993 59.6193C54.0793 60.2293 54.7493 60.7493 55.4993 60.6393C57.2093 60.3893 59.7893 57.3493 59.5693 55.0993C59.4693 52.0793 56.2993 54.2293 58.4293 55.4193C57.8693 57.2993 56.3793 60.3893 55.3793 60.1993C54.3693 59.9993 56.0293 53.8193 58.9093 53.2093C59.0193 53.1893 59.1593 53.1893 59.3193 53.1793C59.3793 53.1593 59.4293 53.1493 59.3393 53.1193C59.1993 53.0493 58.8893 52.9193 58.2793 53.0493C56.4393 53.4393 54.4993 55.3593 53.9193 57.4093C53.0993 58.7393 52.0093 60.4193 51.4993 60.4693C51.5593 59.3493 52.1293 57.0193 52.8593 54.5893C53.1993 53.4893 53.4793 52.5693 53.8393 51.6993C56.3793 50.7393 59.2793 50.1093 62.5193 49.7193C62.7093 49.6993 62.6393 49.6793 62.4993 49.6693C60.0793 49.6593 56.6793 50.2393 54.1593 50.9093C54.5793 49.8393 55.1193 48.3393 55.6993 48.4793C56.0593 48.5893 55.1393 47.7893 54.2593 48.0193C54.1193 48.0493 53.9493 48.2193 53.7693 48.4693C53.4693 48.8793 53.1893 49.4893 52.4493 51.4093C50.7293 51.9893 49.1193 52.8093 49.3993 53.5293C49.6093 54.0393 50.2493 54.2393 50.4993 54.1793C50.0093 54.0293 50.7093 53.0493 52.1293 52.4193C51.7893 53.3393 51.5393 54.1493 51.3093 54.9093C50.9893 56.0193 50.7493 56.9493 50.5693 57.7193C49.7793 59.0193 48.5993 60.8393 47.8693 61.2393C47.8293 61.1093 47.8393 60.9093 47.8593 60.6593C48.0193 59.5193 48.9193 57.4393 49.0493 57.5793C49.0493 57.3693 48.2393 56.5893 47.9693 56.8193C47.6393 57.1293 46.9193 58.3793 46.7093 58.6993C46.0993 59.5893 44.3693 61.6993 43.8993 61.9893C43.8593 62.0193 43.8293 62.0193 43.7893 62.0193C43.6193 61.9593 44.1893 59.6693 45.2993 58.0193C46.0693 56.9093 47.0193 55.9893 47.9293 55.7393C48.3993 55.6093 48.7693 55.7893 48.9193 56.2793C48.9893 56.5193 48.9593 56.7393 48.9193 56.8993C48.9093 56.9193 48.9493 56.9293 48.9793 56.9093C49.0693 56.6593 49.1293 56.3593 49.0493 56.0793C48.8093 55.3193 47.9393 55.2193 47.3293 55.3493C45.8193 55.6693 44.3993 56.9993 43.4693 58.4593C43.4593 58.4693 43.4493 58.4693 43.4493 58.4793C42.7693 59.5693 40.9393 62.7693 40.2193 62.8293C40.2793 61.7093 40.8593 59.3993 41.5893 56.9493C42.0293 55.5993 42.3893 54.5093 42.7993 53.4693C43.2293 52.4393 43.7993 50.6993 44.4393 50.8393C44.7893 50.9593 43.8693 50.1493 42.9893 50.3893C42.8493 50.4193 42.6793 50.5893 42.4993 50.8293C42.2093 51.2393 41.9193 51.8593 41.6293 52.5893C41.1393 53.8693 40.5493 55.4993 40.0393 57.2793C39.7593 58.2493 39.5393 59.0993 39.3693 59.8093C38.1293 61.5193 36.2193 63.8793 35.1693 64.0993C34.8193 64.1693 34.6393 64.0893 34.5993 63.8893C34.5193 63.4593 34.6593 62.8793 34.8393 62.4793ZM38.0393 57.8193C38.1293 58.4593 36.2893 61.6493 34.9493 62.1093C35.2193 61.1393 36.4493 58.7793 38.0393 57.8193Z" fill="white"/>
</svg>
