<svg xmlns="http://www.w3.org/2000/svg" width="241" height="240" viewBox="0 0 241 240" fill="none"><path fill-rule="evenodd" clip-rule="evenodd" d="M77.7957 87.4425C76.1043 85.2609 75.0131 82.6747 74.6304 79.9408C74.2476 77.2069 74.5868 74.4205 75.614 71.8582C76.6255 69.2972 78.2808 67.0406 80.4199 65.3067C82.5589 63.5728 85.1092 62.4203 87.8241 61.9607C90.538 61.5064 93.3246 61.8135 95.8744 62.8479C97.9175 63.6414 99.7637 64.8697 101.285 66.4477C102.776 67.9781 103.935 69.8003 104.688 71.8C104.721 71.8747 104.737 71.9551 104.737 72.0364C104.737 72.1176 104.721 72.1981 104.688 72.2727C104.655 72.3602 104.603 72.4391 104.535 72.5033C104.467 72.5676 104.385 72.6155 104.296 72.6436L100.332 74.0326C100.168 74.1095 99.9817 74.1224 99.8087 74.0689C99.7276 74.036 99.6551 73.9848 99.597 73.9191C99.539 73.8535 99.497 73.7754 99.4742 73.6908C98.9995 72.3958 98.256 71.2161 97.2925 70.2292C96.188 69.0972 94.8263 68.2489 93.3233 67.7563C91.8204 67.2638 90.2207 67.1417 88.6604 67.4003C86.8876 67.6851 85.2231 68.4383 83.8389 69.582C82.4325 70.7153 81.3446 72.1945 80.6817 73.8747C80.0188 75.5549 79.8037 77.3784 80.0574 79.1668C80.3139 80.9371 81.02 82.6121 82.1082 84.0319C83.1843 85.4474 84.6353 86.5331 86.2969 87.1662C87.516 87.6691 88.8253 87.9166 90.1439 87.8934C91.4571 87.8578 92.75 87.5612 93.9473 87.0208C94.2349 86.9084 94.5542 86.9084 94.8418 87.0208C95.0574 87.0959 95.2349 87.2526 95.3363 87.4571L95.8599 88.4388L96.9071 90.5623C97.0003 90.6954 97.0579 90.8502 97.0745 91.0118C97.091 91.1735 97.066 91.3367 97.0017 91.4859C96.9692 91.5786 96.9183 91.6637 96.8521 91.7362C96.7858 91.8087 96.7056 91.8671 96.6162 91.9077C94.7183 92.8177 92.6544 93.3299 90.5512 93.4131C88.1094 93.4993 85.6815 93.0105 83.4633 91.986C81.2451 90.9616 79.2988 89.4302 77.7812 87.5153L77.7957 87.4425Z" fill="#A3660C"></path><path fill-rule="evenodd" clip-rule="evenodd" d="M187.083 111.506C187.109 111.384 187.109 111.258 187.083 111.135C187.205 109.818 187.178 108.491 187.003 107.179C186.991 106.961 186.916 106.75 186.787 106.574C186.658 106.397 186.481 106.261 186.276 106.183C186.039 106.114 185.787 106.114 185.549 106.183C185.331 106.227 184.822 106.343 184.029 106.554C183.236 106.765 182.684 106.867 182.422 106.918C182.231 106.964 182.053 107.054 181.902 107.18C181.75 107.306 181.63 107.465 181.549 107.645C181.449 107.932 181.412 108.237 181.44 108.539C181.576 110.157 181.327 111.785 180.713 113.288C179.951 115.25 178.593 116.923 176.83 118.073C175.824 118.733 174.708 119.208 173.535 119.477C172.107 119.848 170.611 119.873 169.172 119.549C168.815 119.467 168.463 119.365 168.117 119.244L167.899 119.178L167.71 119.106H167.652C167.522 119.056 167.396 118.998 167.274 118.931H167.238C167.119 118.891 167.005 118.84 166.896 118.778L166.692 118.677L166.598 118.633C166.129 118.381 165.679 118.094 165.252 117.775C164.93 117.523 164.621 117.254 164.329 116.968C163.598 116.244 162.978 115.415 162.489 114.51C162.396 114.35 162.314 114.185 162.242 114.015V113.935L162.089 113.586C162.089 113.506 162.023 113.404 161.994 113.324C161.961 113.266 161.932 113.205 161.907 113.143C161.88 113.054 161.848 112.966 161.812 112.881C161.546 112.039 161.391 111.166 161.354 110.285C161.285 108.819 161.533 107.355 162.082 105.994C162.198 105.703 162.307 105.434 162.431 105.172C162.469 105.116 162.501 105.055 162.525 104.99C162.781 104.513 163.073 104.056 163.398 103.623C164.844 101.702 166.923 100.355 169.266 99.8198C170.553 99.4693 171.901 99.4048 173.215 99.6308C174.529 99.8551 175.787 100.334 176.917 101.042C177.011 101.123 177.121 101.183 177.241 101.219C177.36 101.255 177.485 101.265 177.609 101.25C177.732 101.234 177.851 101.192 177.957 101.128C178.064 101.063 178.155 100.977 178.226 100.874L180.538 97.82C180.668 97.6008 180.727 97.3466 180.706 97.0928C180.7 96.9817 180.669 96.8735 180.614 96.7764C180.56 96.6794 180.484 96.596 180.393 96.5328L180.328 96.4819C178.547 95.3005 176.554 94.4756 174.459 94.053L174.146 94.0021H174.073C174.073 94.0021 174.073 94.0021 174.023 94.0021C172.734 93.7928 171.426 93.7367 170.125 93.8348C166.083 94.2224 162.333 96.1115 159.616 99.129C158.437 100.519 157.496 102.094 156.831 103.79L156.54 104.518C156.358 105.092 156.177 105.667 156.046 106.278C155.515 108.573 155.498 110.956 155.995 113.259C156.337 115.039 157.027 116.734 158.024 118.248C158.5 118.989 159.038 119.69 159.631 120.342C159.65 120.374 159.678 120.399 159.711 120.415C160.061 120.818 160.437 121.197 160.838 121.549C162.21 122.757 163.782 123.714 165.485 124.378C166.292 124.702 167.124 124.962 167.972 125.156C167.986 125.152 168.001 125.152 168.016 125.156C169.014 125.393 170.037 125.513 171.063 125.513C171.484 125.534 171.907 125.534 172.328 125.513C174.639 125.401 176.887 124.722 178.873 123.535C180.508 122.651 181.97 121.479 183.185 120.073C185.264 117.647 186.604 114.677 187.047 111.514L187.083 111.506Z" fill="#A3660C"></path><path fill-rule="evenodd" clip-rule="evenodd" d="M127.473 108.583C127.43 108.489 127.409 108.388 127.409 108.285C127.409 108.182 127.43 108.08 127.473 107.987L133.116 93.6822C133.152 93.5824 133.207 93.4907 133.278 93.4125C133.35 93.3342 133.436 93.2709 133.532 93.2263C133.628 93.1816 133.732 93.1565 133.838 93.1524C133.944 93.1482 134.049 93.1652 134.148 93.2022L143.217 96.7801C143.715 96.9814 144.249 97.08 144.786 97.07C145.324 97.06 145.854 96.9416 146.344 96.7219C146.84 96.5309 147.29 96.238 147.666 95.8623C148.042 95.4865 148.335 95.0362 148.526 94.5403C148.737 94.0409 148.842 93.5033 148.834 92.9613C148.826 92.4193 148.707 91.8847 148.482 91.3914C148.274 90.8948 147.968 90.4455 147.582 90.0706C147.196 89.6956 146.737 89.4028 146.235 89.2097L137.166 85.6318C137.068 85.5946 136.978 85.5363 136.904 85.461C136.83 85.3856 136.773 85.295 136.737 85.1955C136.692 85.0948 136.669 84.9857 136.669 84.8755C136.669 84.7652 136.692 84.6562 136.737 84.5555L138.192 80.803C138.226 80.6986 138.282 80.6026 138.356 80.5211C138.43 80.4397 138.52 80.3747 138.621 80.3304C138.716 80.2871 138.819 80.2648 138.923 80.2648C139.027 80.2648 139.13 80.2871 139.225 80.3304L148.293 83.901C149.895 84.5291 151.296 85.5826 152.344 86.9481C153.413 88.2955 154.11 89.8998 154.365 91.6008C154.62 93.3019 154.425 95.0401 153.798 96.6419C153.175 98.2333 152.135 99.6275 150.787 100.678C149.448 101.75 147.851 102.449 146.155 102.707C144.458 102.981 142.718 102.788 141.123 102.147L137.421 100.693C137.216 100.59 136.986 100.552 136.759 100.583C136.614 100.583 136.483 100.765 136.396 100.998L132.796 110.125C132.76 110.227 132.701 110.32 132.624 110.397C132.548 110.473 132.455 110.532 132.352 110.568C132.147 110.652 131.918 110.652 131.712 110.568L127.916 109.07C127.811 109.027 127.716 108.961 127.64 108.876C127.563 108.792 127.506 108.692 127.473 108.583Z" fill="#A3660C"></path><path fill-rule="evenodd" clip-rule="evenodd" d="M116.23 104.22C116.129 104.053 116.076 103.862 116.078 103.667L116.936 96.3221C116.945 96.0439 116.874 95.7687 116.732 95.5294C116.583 95.301 116.367 95.1234 116.114 95.0204L107.795 91.7406C107.617 91.6649 107.473 91.5282 107.387 91.3552C107.325 91.1987 107.325 91.0245 107.387 90.868L110.427 87.2755C110.5 87.1141 110.629 86.9848 110.791 86.9119C110.877 86.8672 110.973 86.8439 111.071 86.8439C111.168 86.8439 111.264 86.8672 111.351 86.9119L116.703 89.0208C116.815 89.0801 116.94 89.111 117.067 89.111C117.193 89.111 117.318 89.0801 117.43 89.0208C117.539 88.9595 117.631 88.8711 117.696 88.7641C117.761 88.6571 117.797 88.5351 117.801 88.41L118.783 79.1379C118.798 78.8836 118.737 78.6305 118.608 78.4107C118.467 78.1801 118.259 77.9977 118.012 77.8871L117.728 77.7707C117.477 77.6972 117.209 77.6972 116.958 77.7707C116.708 77.8431 116.487 77.9904 116.325 78.1925L113.176 82.3522C113.123 82.4237 113.056 82.4829 112.978 82.5256C112.9 82.5683 112.814 82.5935 112.725 82.5995C112.548 82.5742 112.376 82.5202 112.216 82.4395L108.194 80.7232C108.117 80.6726 108.051 80.6063 108.001 80.5286C107.951 80.4509 107.918 80.3637 107.904 80.2724C107.854 80.0706 107.883 79.8575 107.984 79.676L114.303 71.2403C114.436 71.0869 114.61 70.9752 114.805 70.9185C115 70.8617 115.207 70.8623 115.401 70.9203L124.244 74.4037C124.424 74.4893 124.58 74.6194 124.695 74.7818C124.827 74.9534 124.9 75.1621 124.906 75.3781L121.583 105.885L121.546 105.965C121.529 106.036 121.495 106.101 121.448 106.157C121.401 106.213 121.342 106.257 121.275 106.285C121.208 106.314 121.135 106.327 121.063 106.323C120.99 106.32 120.919 106.299 120.855 106.263L116.71 104.62C116.514 104.538 116.347 104.398 116.23 104.22Z" fill="#A3660C"></path><path fill-rule="evenodd" clip-rule="evenodd" d="M179.651 138.843C179.625 138.783 179.587 138.729 179.54 138.684C179.492 138.639 179.436 138.604 179.375 138.581L176.713 137.534C176.65 137.505 176.582 137.49 176.513 137.49C176.444 137.49 176.376 137.505 176.313 137.534C176.243 137.557 176.179 137.597 176.127 137.65C176.075 137.703 176.037 137.768 176.015 137.839L174.124 142.631L173.855 143.322L169.128 155.307C169.101 155.37 169.087 155.438 169.087 155.507C169.087 155.576 169.101 155.644 169.128 155.707C169.157 155.773 169.2 155.832 169.254 155.88C169.308 155.927 169.372 155.963 169.441 155.983L172.11 157.038C172.169 157.067 172.233 157.082 172.299 157.082C172.365 157.082 172.429 157.067 172.488 157.038C172.612 156.98 172.709 156.875 172.757 156.747L177.484 144.762L177.753 144.035L179.644 139.243C179.672 139.18 179.688 139.112 179.689 139.043C179.69 138.975 179.677 138.906 179.651 138.843Z" fill="#A3660C"></path><path fill-rule="evenodd" clip-rule="evenodd" d="M125.495 117.492C125.469 117.431 125.431 117.376 125.383 117.329C125.336 117.283 125.28 117.247 125.218 117.223L122.528 116.175C122.464 116.148 122.396 116.134 122.328 116.134C122.259 116.134 122.191 116.148 122.128 116.175C122.057 116.197 121.993 116.235 121.942 116.287C121.89 116.339 121.851 116.403 121.829 116.473L119.939 121.273L119.67 121.964L114.943 133.949C114.915 134.01 114.901 134.077 114.901 134.145C114.901 134.213 114.915 134.279 114.943 134.341C114.973 134.407 115.016 134.467 115.07 134.516C115.123 134.564 115.187 134.602 115.255 134.625L117.946 135.672C118.004 135.703 118.069 135.719 118.135 135.719C118.201 135.719 118.266 135.703 118.324 135.672C118.386 135.644 118.442 135.604 118.489 135.554C118.535 135.504 118.571 135.445 118.593 135.381L123.32 123.397L123.589 122.706L125.48 117.913C125.514 117.849 125.533 117.777 125.535 117.704C125.538 117.631 125.524 117.558 125.495 117.492Z" fill="#A3660C"></path><path d="M130.612 119.35L129.235 122.841L138.883 126.645L140.259 123.154L130.612 119.35Z" fill="#A3660C"></path><path fill-rule="evenodd" clip-rule="evenodd" d="M129.472 122.735C129.445 122.676 129.431 122.611 129.431 122.546C129.431 122.481 129.445 122.416 129.472 122.357L130.454 119.862C130.477 119.794 130.514 119.73 130.563 119.677C130.612 119.623 130.671 119.58 130.737 119.55C130.797 119.523 130.861 119.509 130.926 119.509C130.992 119.509 131.056 119.523 131.116 119.55L139.784 122.968C139.845 122.989 139.902 123.023 139.948 123.068C139.995 123.113 140.031 123.169 140.053 123.23C140.082 123.296 140.097 123.368 140.097 123.44C140.097 123.513 140.082 123.585 140.053 123.651L139.064 126.146C139.045 126.209 139.011 126.267 138.965 126.314C138.92 126.362 138.864 126.399 138.802 126.422C138.74 126.456 138.67 126.474 138.599 126.474C138.527 126.474 138.457 126.456 138.395 126.422L129.734 123.004C129.673 122.982 129.618 122.946 129.572 122.899C129.527 122.853 129.493 122.796 129.472 122.735Z" fill="#A3660C"></path><path fill-rule="evenodd" clip-rule="evenodd" d="M137.493 129.709C137.469 129.648 137.432 129.593 137.384 129.547C137.336 129.502 137.279 129.468 137.217 129.447L128.549 126.029C128.429 125.986 128.297 125.986 128.178 126.029C128.115 126.057 128.059 126.097 128.013 126.147C127.967 126.197 127.931 126.256 127.909 126.32V126.364L126.941 128.814L123.574 137.352C123.549 137.412 123.536 137.476 123.536 137.541C123.536 137.606 123.549 137.67 123.574 137.73C123.626 137.849 123.723 137.943 123.843 137.992L126.476 139.025C126.537 139.053 126.604 139.068 126.672 139.068C126.74 139.068 126.807 139.053 126.869 139.025C126.932 139.001 126.989 138.965 127.038 138.919C127.087 138.873 127.126 138.817 127.152 138.755L130.134 131.2C130.153 131.133 130.187 131.072 130.233 131.022C130.28 130.971 130.338 130.933 130.403 130.909C130.466 130.882 130.534 130.868 130.603 130.868C130.672 130.868 130.74 130.882 130.803 130.909L135.043 132.581L135.864 132.909C135.996 132.954 136.139 132.947 136.265 132.888C136.391 132.83 136.49 132.725 136.541 132.596L137.508 130.145C137.536 130.075 137.549 130.001 137.546 129.925C137.544 129.85 137.526 129.777 137.493 129.709Z" fill="#A3660C"></path><path fill-rule="evenodd" clip-rule="evenodd" d="M154.969 149.962L160.474 135.999C160.506 135.922 160.523 135.839 160.523 135.755C160.523 135.672 160.506 135.589 160.474 135.512C160.392 135.348 160.252 135.221 160.081 135.155L158.583 134.566C158.54 134.547 158.502 134.519 158.471 134.484C158.44 134.449 158.416 134.407 158.401 134.363C158.378 134.318 158.365 134.268 158.365 134.217C158.365 134.167 158.378 134.117 158.401 134.072L159.47 131.374C159.484 131.323 159.508 131.276 159.542 131.236C159.576 131.195 159.619 131.163 159.667 131.141C159.709 131.123 159.755 131.114 159.801 131.114C159.847 131.114 159.893 131.123 159.936 131.141L171.44 135.672C171.485 135.685 171.526 135.709 171.559 135.742C171.592 135.775 171.616 135.816 171.629 135.861C171.651 135.91 171.662 135.963 171.662 136.017C171.662 136.071 171.651 136.124 171.629 136.174L170.568 138.879C170.548 138.927 170.519 138.969 170.481 139.005C170.443 139.04 170.398 139.066 170.349 139.082C170.307 139.104 170.259 139.116 170.211 139.116C170.163 139.116 170.116 139.104 170.073 139.082L165.164 137.148C165.084 137.114 164.997 137.097 164.91 137.097C164.822 137.097 164.736 137.114 164.655 137.148C164.575 137.177 164.502 137.223 164.441 137.281C164.38 137.34 164.331 137.411 164.299 137.49L158.794 151.453C158.776 151.5 158.748 151.543 158.711 151.578C158.675 151.613 158.631 151.64 158.583 151.656C158.489 151.693 158.386 151.693 158.292 151.656L155.165 150.42C155.12 150.406 155.078 150.382 155.043 150.35C155.008 150.319 154.98 150.28 154.961 150.236C154.942 150.193 154.933 150.145 154.935 150.098C154.936 150.051 154.948 150.004 154.969 149.962Z" fill="#A3660C"></path><path fill-rule="evenodd" clip-rule="evenodd" d="M94.7482 117.171C94.8178 117.069 94.8763 116.959 94.9228 116.844C94.9363 116.803 94.9586 116.766 94.9882 116.735L95.0973 116.466C95.1322 116.416 95.1615 116.362 95.1846 116.306L95.2791 116.052L95.3664 115.841C95.403 115.76 95.4275 115.674 95.4391 115.586L95.5191 115.397C95.5845 115.222 95.6355 115.041 95.6864 114.859C95.6864 114.859 95.6864 114.815 95.6864 114.793C95.8005 114.391 95.8807 113.98 95.9263 113.564C95.9408 113.49 95.9408 113.413 95.9263 113.339C95.9263 113.281 95.9263 113.194 95.9627 113.135C95.9701 112.995 95.9701 112.854 95.9627 112.714V112.677C95.9773 112.493 95.9773 112.308 95.9627 112.125C95.9627 112.125 95.9627 112.125 95.9627 112.081C95.9568 111.653 95.9252 111.225 95.8682 110.801C95.8581 110.66 95.8074 110.526 95.7222 110.413C95.6369 110.301 95.5209 110.216 95.3882 110.168L95.2936 110.132C95.1742 110.103 95.0495 110.103 94.93 110.132C94.604 110.188 94.2812 110.26 93.9628 110.35C93.4465 110.481 93.1047 110.546 92.9375 110.59C92.8135 110.617 92.6978 110.673 92.6003 110.754C92.5028 110.835 92.4263 110.938 92.3775 111.056C92.3009 111.242 92.2734 111.445 92.2975 111.645C92.3992 112.679 92.247 113.722 91.8539 114.684C91.7397 114.972 91.606 115.251 91.4539 115.521C91.4539 115.579 91.3885 115.63 91.3667 115.688L91.2212 115.892C91.1578 116.004 91.0848 116.111 91.0031 116.212C91.0071 116.228 91.0071 116.246 91.0031 116.262C90.9449 116.35 90.8576 116.444 90.7849 116.531C90.7121 116.619 90.7267 116.619 90.6903 116.648C90.6229 116.714 90.5598 116.785 90.5013 116.859L90.3267 117.011C90.2437 117.104 90.1511 117.186 90.0504 117.259L89.9486 117.353C89.825 117.433 89.7159 117.55 89.5923 117.63C89.4686 117.71 89.5923 117.63 89.5923 117.63C89.2964 117.831 88.9879 118.013 88.6687 118.175C88.5059 118.253 88.3383 118.321 88.1669 118.379C88.1669 118.379 88.1305 118.379 88.1087 118.379C87.9487 118.444 87.8033 118.48 87.6505 118.531C87.4978 118.582 87.5706 118.531 87.5269 118.568C87.1744 118.664 86.8144 118.729 86.4507 118.764C85.7626 118.84 85.0667 118.798 84.3926 118.64C84.3128 118.624 84.2349 118.6 84.1599 118.568C84.0028 118.537 83.8493 118.491 83.7017 118.43H83.6436C83.4364 118.357 83.2346 118.269 83.04 118.168C82.9843 118.151 82.9323 118.124 82.8872 118.088H82.8145C82.6867 118.017 82.5629 117.939 82.4437 117.855C82.3179 117.777 82.1965 117.692 82.08 117.601C82.0261 117.579 81.9785 117.544 81.9419 117.499C81.8499 117.417 81.7527 117.342 81.651 117.273L81.5419 117.164C81.0487 116.695 80.6273 116.156 80.2911 115.564L80.2184 115.404C79.7767 114.592 79.5279 113.689 79.4911 112.764C79.4488 111.82 79.6101 110.878 79.9638 110.001L80.102 109.659C80.102 109.601 80.1674 109.55 80.182 109.514C80.2127 109.422 80.2542 109.334 80.3056 109.252C80.3493 109.201 80.3783 109.121 80.4292 109.056C80.5442 108.857 80.6705 108.665 80.8074 108.481L81.0619 108.176L81.1783 108.045C81.4244 107.765 81.6972 107.509 81.9928 107.281C82.0291 107.281 82.0582 107.238 82.0655 107.216L82.24 107.114C82.5654 106.884 82.911 106.685 83.2727 106.518H83.3527L83.8254 106.321C83.8796 106.317 83.932 106.299 83.9781 106.27L84.3053 106.183C84.6555 106.088 85.0131 106.022 85.3743 105.987C86.0081 105.897 86.6526 105.916 87.2797 106.045C87.4911 106.086 87.6999 106.14 87.9051 106.205C88.3122 106.33 88.7066 106.493 89.0832 106.692C89.1129 106.7 89.1388 106.718 89.1559 106.743C89.5154 106.923 89.8523 107.145 90.1595 107.405C90.212 107.465 90.2769 107.513 90.3496 107.546C90.4224 107.579 90.5014 107.597 90.5813 107.597C90.6612 107.597 90.7402 107.579 90.8129 107.546C90.8857 107.513 90.9505 107.465 91.0031 107.405L92.7266 105.667C92.8197 105.538 92.8797 105.388 92.9011 105.23C92.9074 105.156 92.8963 105.081 92.8685 105.012C92.8407 104.942 92.7971 104.88 92.7411 104.83C92.1524 104.312 91.5058 103.863 90.814 103.492C90.6901 103.418 90.5613 103.353 90.4285 103.296C90.3919 103.287 90.359 103.266 90.334 103.238L90.014 103.107L89.8031 102.947H89.7231L89.4395 102.831L89.2286 102.751L89.1341 102.707C89.0759 102.707 88.9886 102.707 88.9305 102.656H88.8941L88.3487 102.503C88.2469 102.49 88.1469 102.466 88.0505 102.431C87.9851 102.431 87.9269 102.431 87.8615 102.431C87.8329 102.423 87.8028 102.423 87.7742 102.431C87.716 102.431 87.6505 102.431 87.6142 102.394C87.5778 102.358 87.6142 102.394 87.6142 102.394L87.0688 102.314H86.8579H86.487C86.4658 102.307 86.4428 102.307 86.4215 102.314C86.4215 102.314 86.3706 102.314 86.3343 102.314C86.1816 102.314 86.0288 102.314 85.8761 102.314H85.5998C85.5248 102.307 85.4493 102.307 85.3743 102.314C85.2993 102.307 85.2239 102.307 85.1489 102.314C83.7476 102.428 82.3878 102.845 81.1637 103.536C81.0474 103.601 80.9528 103.674 80.8438 103.725C80.8159 103.754 80.7841 103.778 80.7492 103.798C79.868 104.316 79.0811 104.98 78.4221 105.761C77.9556 106.311 77.544 106.906 77.1931 107.536L76.7131 108.038C76.575 108.314 76.4659 108.605 76.3423 108.91C75.8067 110.321 75.5955 111.835 75.7241 113.339C75.794 114.494 76.0853 115.625 76.5822 116.67C76.6332 116.779 76.6695 116.859 76.7204 116.946C76.7856 117.054 76.8439 117.165 76.8949 117.281C76.9822 117.404 77.0477 117.521 77.1131 117.63C77.1435 117.714 77.1878 117.793 77.244 117.862C77.304 117.942 77.3598 118.024 77.4113 118.11C77.4406 118.154 77.4674 118.2 77.4913 118.248C77.564 118.342 77.6367 118.437 77.7312 118.539L77.7676 118.619L78.0949 119.019C78.1567 119.076 78.215 119.136 78.2694 119.2C78.2954 119.231 78.3196 119.262 78.3421 119.295C78.473 119.411 78.5748 119.542 78.6912 119.651C78.8075 119.76 78.7275 119.651 78.6912 119.688C78.8075 119.775 78.9021 119.877 79.0184 119.971C79.0811 120.033 79.1493 120.089 79.2221 120.139C79.3021 120.211 79.3748 120.262 79.4548 120.342L79.9638 120.72C80.022 120.72 80.0584 120.778 80.1093 120.8C80.3202 120.946 80.5383 121.077 80.771 121.215H80.8147C81.0498 121.35 81.2926 121.471 81.5419 121.578L81.6582 121.622C81.7673 121.666 81.8982 121.738 82.0146 121.789C82.1091 121.789 82.2182 121.84 82.3128 121.884L82.4073 121.92C82.5476 121.976 82.6908 122.025 82.8363 122.066H82.9164C83.1709 122.146 83.4327 122.204 83.6436 122.262H83.7454L84.0799 122.327C84.14 122.316 84.2016 122.316 84.2617 122.327L84.7489 122.386C84.8433 122.394 84.9382 122.394 85.0326 122.386C85.1387 122.4 85.2464 122.4 85.3525 122.386C85.3525 122.386 85.3961 122.386 85.418 122.386H85.7889C85.8492 122.378 85.9103 122.378 85.9707 122.386C86.0361 122.386 86.1307 122.386 86.2179 122.386H86.3488C87.8382 122.308 89.2871 121.874 90.574 121.12C91.6137 120.56 92.5466 119.822 93.3301 118.939C93.7498 118.457 94.1178 117.933 94.4283 117.375C94.4719 117.331 94.4937 117.273 94.5374 117.222C94.581 117.171 94.7191 117.251 94.7482 117.171Z" fill="#A3660C"></path><path fill-rule="evenodd" clip-rule="evenodd" d="M116.972 114.146C116.903 114.033 116.798 113.946 116.674 113.899L114.121 112.895C114.058 112.867 113.99 112.852 113.921 112.852C113.852 112.852 113.784 112.867 113.721 112.895C113.661 112.922 113.607 112.96 113.562 113.007C113.517 113.055 113.482 113.111 113.459 113.172V113.245L112.689 115.201L110.362 121.157L109.438 123.622C109.42 123.675 109.393 123.724 109.358 123.767C109.358 123.84 109.292 123.869 109.256 123.855C109.22 123.84 109.162 123.753 109.125 123.586C108.834 122.008 108.398 119.724 107.758 116.706C107.118 113.688 106.733 111.492 106.456 110.161C106.43 110.04 106.396 109.921 106.355 109.805L106.144 109.725H106.1L103.62 108.765C103.555 108.736 103.484 108.721 103.413 108.721C103.342 108.721 103.271 108.736 103.206 108.765C103.14 108.788 103.082 108.826 103.035 108.877C102.988 108.927 102.954 108.989 102.937 109.056L102.871 109.208C102.871 109.252 102.871 109.288 102.915 109.332L104.347 117.433C104.39 117.562 104.412 117.697 104.413 117.833L104.595 118.881L105.075 121.855C105.084 121.908 105.084 121.962 105.075 122.015L106.529 130.952C106.549 131.016 106.583 131.074 106.629 131.123C106.674 131.172 106.729 131.211 106.791 131.236L109.358 132.254C109.422 132.281 109.492 132.295 109.562 132.295C109.631 132.295 109.701 132.281 109.765 132.254C109.831 132.229 109.89 132.191 109.94 132.143C109.99 132.094 110.03 132.035 110.056 131.971L113.772 122.553L115.997 116.895L116.143 116.532L116.361 115.979L116.914 114.575C116.955 114.513 116.981 114.442 116.992 114.367C117.002 114.293 116.995 114.218 116.972 114.146Z" fill="#A3660C"></path><path fill-rule="evenodd" clip-rule="evenodd" d="M102.005 122.43L100.66 114.874L96.1145 126.4C96.0857 126.467 96.0708 126.538 96.0708 126.611C96.0708 126.684 96.0857 126.755 96.1145 126.822C96.1456 126.886 96.1893 126.944 96.243 126.992C96.2967 127.039 96.3593 127.075 96.4272 127.098L99.2488 128.211C99.3087 128.236 99.3729 128.249 99.4379 128.249C99.5028 128.249 99.5671 128.236 99.627 128.211C99.6923 128.181 99.7505 128.138 99.7981 128.084C99.8457 128.03 99.8816 127.967 99.9033 127.898L102.027 122.509C102.027 122.509 101.998 122.451 102.005 122.43Z" fill="#A3660C"></path><path fill-rule="evenodd" clip-rule="evenodd" d="M62.9318 113.739L64.0008 111.034C64.0444 110.917 64.1317 110.859 64.248 110.91L65.7025 111.477C65.9984 111.596 66.3154 111.654 66.6342 111.646C66.953 111.639 67.267 111.567 67.5569 111.434C68.1445 111.156 68.6009 110.66 68.8295 110.052C69.0841 109.419 69.4768 108.307 69.2004 107.718C68.927 107.056 68.4232 106.516 67.7823 106.198L66.4152 105.667C66.3783 105.656 66.3445 105.637 66.3164 105.611C66.2883 105.584 66.2667 105.552 66.2533 105.516C66.2399 105.48 66.235 105.441 66.2391 105.403C66.2433 105.365 66.2562 105.328 66.277 105.296L67.3606 102.533L67.4478 102.438C67.4731 102.427 67.5003 102.422 67.5278 102.422C67.5553 102.422 67.5825 102.427 67.6078 102.438L67.9714 102.584C68.7641 102.809 68.9532 102.903 69.4259 102.46C69.7968 102.14 69.7676 102.104 70.0004 101.514C70.5167 100.205 70.2331 99.9655 70.1313 99.7692C69.7531 99.1638 69.1656 98.7186 68.4805 98.5183L66.866 97.8857C66.632 97.7954 66.3728 97.7954 66.1388 97.8857C66.021 97.9341 65.9144 98.0062 65.8256 98.0975C65.7368 98.1888 65.6677 98.2974 65.6225 98.4165L60.0447 112.546C60.0372 112.574 60.0213 112.599 59.9992 112.617C59.977 112.635 59.9497 112.646 59.9211 112.648C59.8995 112.659 59.8759 112.664 59.852 112.664C59.8281 112.664 59.8045 112.659 59.7829 112.648L57.194 111.674C57.1662 111.667 57.1402 111.655 57.1183 111.636C57.0963 111.618 57.079 111.595 57.0677 111.569C57.0563 111.543 57.0513 111.514 57.0531 111.486C57.0548 111.457 57.0632 111.429 57.0776 111.405L64.1826 93.3987C64.2262 93.2823 64.3062 93.246 64.4444 93.3041L69.7313 95.3913C70.4419 95.6646 71.0913 96.076 71.6421 96.6016C72.1929 97.1273 72.6342 97.7568 72.9404 98.4538C73.2467 99.1509 73.4119 99.9016 73.4265 100.663C73.4411 101.424 73.3049 102.181 73.0256 102.889C72.6192 103.907 71.9335 104.789 71.0476 105.434C71.7288 106.247 72.1673 107.235 72.3129 108.285C72.4989 109.307 72.3904 110.362 72.0002 111.325C71.4302 112.753 70.3176 113.898 68.9057 114.509C67.4938 115.119 65.8976 115.146 64.4662 114.583L63.0118 114.015C62.9859 114.005 62.9628 113.989 62.9441 113.969C62.9254 113.948 62.9117 113.924 62.9039 113.897C62.8962 113.87 62.8947 113.842 62.8995 113.815C62.9044 113.787 62.9154 113.762 62.9318 113.739Z" fill="#A3660C"></path><path fill-rule="evenodd" clip-rule="evenodd" d="M147.065 146.958C146.991 146.858 146.955 146.734 146.963 146.609L147.501 141.919C147.503 141.74 147.458 141.565 147.37 141.41C147.28 141.265 147.148 141.151 146.992 141.082L141.661 138.974C141.603 138.957 141.549 138.928 141.504 138.887C141.458 138.847 141.423 138.797 141.4 138.741C141.378 138.691 141.367 138.638 141.367 138.584C141.367 138.531 141.378 138.477 141.4 138.428L143.341 136.137C143.362 136.083 143.393 136.033 143.433 135.99C143.473 135.948 143.521 135.914 143.574 135.89C143.632 135.858 143.697 135.841 143.763 135.841C143.829 135.841 143.895 135.858 143.952 135.89L147.363 137.235C147.434 137.268 147.511 137.285 147.588 137.285C147.666 137.285 147.743 137.268 147.814 137.235C147.884 137.196 147.943 137.137 147.982 137.067C148.022 136.996 148.042 136.916 148.039 136.835L148.694 130.909C148.699 130.744 148.653 130.581 148.563 130.443C148.476 130.295 148.343 130.18 148.185 130.116L147.996 130.036C147.836 129.991 147.668 129.991 147.508 130.036C147.355 130.088 147.219 130.181 147.116 130.305L145.072 132.93C145.041 132.98 144.997 133.02 144.944 133.046C144.891 133.072 144.832 133.082 144.774 133.076C144.653 133.078 144.535 133.045 144.432 132.981L141.872 131.883C141.82 131.855 141.776 131.813 141.745 131.761C141.715 131.71 141.698 131.652 141.698 131.592C141.686 131.479 141.714 131.366 141.778 131.272L145.821 125.862C145.903 125.761 146.015 125.689 146.141 125.658C146.263 125.626 146.39 125.626 146.512 125.658L152.17 127.891C152.29 127.947 152.395 128.032 152.475 128.138C152.548 128.246 152.591 128.371 152.599 128.502L150.497 148.035V148.078C150.488 148.123 150.468 148.166 150.44 148.202C150.411 148.238 150.375 148.267 150.333 148.287C150.292 148.306 150.246 148.316 150.2 148.315C150.154 148.315 150.109 148.303 150.068 148.282L147.377 147.22C147.246 147.172 147.135 147.079 147.065 146.958Z" fill="#A3660C"></path><path fill-rule="evenodd" clip-rule="evenodd" d="M95.0468 137.214C95.2504 134.676 92.6397 133.425 91.0253 133.141C79.6224 131.199 57.9585 143.991 57.0058 157.089C56.7731 160.259 58.533 162.179 61.8055 163.015C71.0921 165.306 91.3816 149.155 93.076 150.98C93.6069 151.547 93.1778 149.358 91.4179 148.711C93.0178 148.949 94.5799 149.394 96.0649 150.034C95.9486 149.474 92.8579 147.816 89.0327 147.169C86.3201 146.697 73.2592 145.715 73.0338 148.805C72.9465 149.991 74.0301 151.46 74.0519 151.118C74.1974 149.402 83.1204 148.129 89.6872 148.507C83.8694 152.711 70.6703 161.481 63.4272 160.928C60.3583 160.717 59.7911 159.067 60.0602 157.03C61.5146 146.427 81.775 132.268 90.8217 133.817C92.2761 134.057 93.7305 135.025 93.5996 136.552C93.3596 139.584 88.2909 142.435 85.942 142.042C85.7529 142.042 86.7565 140.704 86.9746 140.479C85.9565 140.762 84.6548 141.933 84.5821 142.726C84.6358 143.128 84.8003 143.506 85.0572 143.82C85.3141 144.133 85.6532 144.369 86.0365 144.5C89.629 145.126 94.7341 141.213 95.0468 137.214ZM92.247 158.136C95.9631 158.652 102.704 154.703 102.901 152.522C102.974 151.554 101.512 150.485 101.032 150.413C99.5774 150.158 96.5813 150.74 93.636 152.703C91.5567 154.024 89.8276 155.828 88.5964 157.961C88.2383 158.652 88.0161 159.405 87.9419 160.179C87.8546 161.125 89.0909 162.608 90.1235 162.783C93.6578 163.379 98.9156 159.939 102.239 157.525C100.523 160.085 99.7738 161.583 99.7229 162.274C99.6814 162.452 99.7019 162.639 99.781 162.804C100.019 163.41 100.386 163.956 100.857 164.404C100.994 164.536 101.161 164.634 101.343 164.69C101.525 164.746 101.717 164.757 101.905 164.724C103.126 164.477 105.788 162.543 108.144 160.586C107.554 161.34 107.17 162.235 107.031 163.183C107.128 164.17 107.574 165.091 108.29 165.779C108.384 165.837 108.484 165.886 108.588 165.924C109.977 166.157 116.885 161.394 117.976 160.492C117.062 161.529 116.309 162.699 115.744 163.961C115.577 164.363 115.455 164.782 115.38 165.212C115.408 165.565 115.509 165.908 115.675 166.221C115.841 166.534 116.07 166.809 116.347 167.03C116.491 167.187 116.683 167.294 116.893 167.335C118.347 167.582 121.983 164.921 125.067 162.339C123.765 164.419 123.183 165.655 123.125 166.251C123.09 166.435 123.118 166.624 123.205 166.79C123.432 167.4 123.801 167.949 124.281 168.39C124.418 168.521 124.585 168.619 124.767 168.674C124.948 168.73 125.141 168.742 125.328 168.71C126.557 168.448 129.321 166.39 131.721 164.412C131.321 165.246 131.075 166.145 130.993 167.066C130.949 167.778 131.154 168.484 131.573 169.061C131.993 169.638 132.6 170.052 133.291 170.229C136.76 171.044 144.011 167.168 145.291 162.688C147.378 156.819 139.676 158.543 142.862 162.434C140.367 165.619 135.168 170.433 133.408 169.299C131.648 168.164 139.48 157.554 145.465 158.565C145.738 158.633 146.008 158.715 146.272 158.812C146.403 158.812 146.512 158.812 146.36 158.717C145.828 158.166 145.11 157.832 144.345 157.779C140.52 157.132 135.349 159.35 132.71 162.87C130.128 164.804 126.768 167.197 125.75 166.906C126.717 164.804 129.568 160.768 132.804 156.659C134.259 154.812 135.524 153.256 136.869 151.86C143.019 152.051 149.123 152.981 155.05 154.63C155.428 154.732 155.312 154.63 155.05 154.514C150.417 152.667 143.458 151.205 138.12 150.587C139.735 148.856 141.902 146.384 142.913 147.089C143.516 147.576 142.36 145.344 140.498 145.118C140.031 145.147 139.583 145.32 139.218 145.613C138.331 146.173 137.335 147.133 134.462 150.253C130.724 150.064 127.015 150.42 127.008 152.012C127.039 152.482 127.21 152.931 127.5 153.302C127.789 153.672 128.182 153.948 128.63 154.092C127.801 153.431 129.888 152.085 133.081 151.911C131.735 153.416 130.644 154.82 129.626 156.063C128.172 157.954 127.008 159.554 126.085 160.899C123.583 162.79 119.947 165.386 118.245 165.604C118.322 165.21 118.465 164.831 118.667 164.484C119.831 162.419 123.132 159.11 123.278 159.481C123.438 159.074 122.47 156.965 121.779 157.205C120.914 157.547 118.587 159.387 117.94 159.859C116.1 161.103 111.184 163.837 110.064 164.041C110.027 164.058 109.988 164.066 109.948 164.066C109.907 164.066 109.868 164.058 109.831 164.041C109.548 163.801 112.376 159.837 115.751 157.496C118.071 155.947 120.587 154.9 122.521 155.11C122.742 155.111 122.961 155.161 123.161 155.255C123.361 155.349 123.539 155.485 123.681 155.655C123.823 155.825 123.926 156.023 123.983 156.237C124.04 156.451 124.05 156.674 124.012 156.892C123.962 157.324 123.799 157.736 123.539 158.085C123.539 158.085 123.576 158.165 123.648 158.15C124.042 157.723 124.296 157.185 124.376 156.609C124.485 154.972 122.921 154.121 121.627 153.911C118.492 153.38 114.762 154.856 111.875 156.95C111.875 156.95 111.824 156.95 111.817 156.95C109.693 158.528 103.759 163.284 102.363 162.855C103.33 160.754 106.188 156.761 109.439 152.616C111.3 150.354 112.82 148.536 114.391 146.856C115.962 145.177 118.405 142.297 119.525 143.053C120.107 143.548 118.951 141.301 117.082 141.09C116.62 141.119 116.177 141.283 115.809 141.562C114.714 142.357 113.71 143.269 112.813 144.282C110.908 146.369 108.544 149.045 106.217 152.071C104.944 153.721 103.883 155.183 103.017 156.434C99.3447 158.776 93.8978 161.859 91.7161 161.481C90.9889 161.35 90.7125 161.066 90.7853 160.652C91.0383 159.697 91.5432 158.828 92.247 158.136ZM101.905 151.591C101.599 152.885 95.6577 157.612 92.7343 157.481C93.9924 155.852 98.1302 152.26 101.905 151.62V151.591Z" fill="#A3660C"></path><path d="M194.748 149.766C192.824 154.673 190.435 159.385 187.614 163.837C184.803 168.316 181.577 172.521 177.979 176.396C170.724 184.182 162.015 190.472 152.344 194.912C147.494 197.155 142.425 198.893 137.218 200.097C135.909 200.366 134.607 200.671 133.291 200.904C131.975 201.137 130.651 201.355 129.328 201.522C128.004 201.689 126.666 201.827 125.328 201.915C123.99 202.002 122.652 202.089 121.314 202.104C110.562 202.327 99.8775 200.347 89.9194 196.286C75.0244 190.169 62.2914 179.75 53.3475 166.361C44.4204 153.105 39.4606 137.577 39.0503 121.6C38.9311 116.3 39.3085 110.999 40.1775 105.769C41.0644 100.529 42.4575 95.3877 44.3372 90.4171C48.1041 80.3765 53.8403 71.1904 61.2086 63.3987C68.5769 55.607 77.4286 49.3671 87.2432 45.0457C97.1087 40.6944 107.734 38.3272 118.514 38.0789C129.301 37.845 140.027 39.7746 150.056 43.754C160.086 47.7334 169.217 53.6819 176.91 61.2482C184.557 68.7919 190.585 77.8165 194.625 87.77C198.639 97.6374 200.694 108.192 200.675 118.844C200.656 129.432 198.645 139.921 194.748 149.766ZM194.414 149.627C196.311 144.74 197.724 139.679 198.632 134.516C199.516 129.359 199.864 124.124 199.672 118.895C199.26 108.468 196.789 98.226 192.4 88.759C190.214 84.0765 187.6 79.6068 184.589 75.4072C183.804 74.3818 183.055 73.3346 182.255 72.3311C181.455 71.3275 180.633 70.3312 179.782 69.3713C178.931 68.4113 178.081 67.4369 177.179 66.5206C176.277 65.6043 175.39 64.6734 174.444 63.8008C170.713 60.2741 166.657 57.1087 162.329 54.3469C157.994 51.5949 153.404 49.2691 148.621 47.4019C139.046 43.6473 128.834 41.7805 118.55 41.9041C108.251 42.0271 98.0759 44.1718 88.6031 48.2164C79.1076 52.2821 70.4872 58.1443 63.2159 65.4806C59.6037 69.17 56.3483 73.1925 53.4929 77.4943C50.6311 81.8126 48.1956 86.3987 46.2207 91.1879C42.2398 100.837 40.232 111.185 40.3156 121.622C40.4687 137.386 45.4566 152.723 54.6056 165.561C63.7298 178.273 76.4153 187.998 91.0612 193.508C100.699 197.204 110.948 199.048 121.27 198.94C122.557 198.94 123.837 198.846 125.124 198.802C126.411 198.759 127.691 198.584 128.971 198.475C130.251 198.366 131.531 198.148 132.804 197.988C134.076 197.828 135.342 197.537 136.614 197.311C141.685 196.288 146.649 194.796 151.442 192.854C161.109 188.886 169.895 183.046 177.295 175.669C181.011 171.983 184.331 167.918 187.2 163.539C190.056 159.151 192.473 154.491 194.414 149.627Z" fill="#A3660C"></path><path d="M80.1116 35.4452C81.2356 34.4729 81.6304 34.0248 81.9615 33.2049C82.3048 32.3478 82.1878 31.1331 81.6749 30.1186C80.3487 27.4958 77.3834 27.0999 73.1028 29.2643L66.1746 32.7673L66.4123 33.2374C68.4791 32.3478 68.9628 32.3828 69.9512 34.3376L75.4184 45.1505C76.3692 47.031 76.1487 47.6395 74.219 48.6774L74.4567 49.1475L82.7953 44.9314C86.3831 43.1173 87.8707 40.2835 86.482 37.537C85.9316 36.4483 84.9855 35.6217 83.8309 35.3045C82.788 35.024 81.8948 34.9164 80.1241 35.4699L80.1116 35.4452ZM74.777 37.6143L71.937 31.9975C71.6493 31.4284 71.7099 31.1181 72.1305 30.9054L73.145 30.3925C76.0895 28.9037 78.1627 29.44 79.2136 31.5185C80.252 33.5722 79.5525 35.1997 77.0534 36.4633L74.777 37.6143ZM75.2774 38.604C78.2472 37.2267 79.1374 36.6523 81.1224 36.8914C82.2142 37.0229 83.0235 37.7633 83.624 38.951C84.162 40.0149 84.2657 41.0189 83.9223 41.876C83.3215 43.3915 82.5056 43.9283 80.4271 44.9792C79.2889 45.5547 78.7554 45.4827 78.33 44.6414L75.2774 38.604Z" fill="#A3660C"></path><path d="M104.346 32.5405L103.595 32.7463C103.168 35.9192 102.206 36.9324 98.3717 37.9834L97.4064 38.248C95.4223 38.792 94.6616 38.8563 94.3529 37.7302L92.5668 31.2148L96.6155 30.1049C98.9214 29.4728 99.4191 29.7111 100.358 31.8752L100.975 31.7061L99.255 25.432L98.6384 25.601C98.8973 27.8074 98.62 28.3735 96.3142 29.0056L92.2655 30.1155L90.6484 24.2167C90.4132 23.3587 90.5715 23.2 91.3223 22.9942L94.8347 22.0314C97.945 21.1787 98.6719 21.4119 99.7356 23.7147L100.406 23.531L99.2476 19.7262L85.037 23.6218L85.1766 24.1312C87.217 23.6872 87.649 24.0012 88.1929 25.9853L91.3975 37.6756C91.9635 39.7401 91.7909 40.1622 89.7631 40.8622L89.9028 41.3717L104.355 37.4099L104.346 32.5405Z" fill="#A3660C"></path><path d="M123.319 17.4178L116.743 17.8212L116.775 18.3484C118.005 18.4123 118.507 18.4372 119.012 18.9355C119.457 19.3817 119.619 20.2073 119.706 21.6226L120.284 31.0574L108.751 18.3114L104.033 18.6008L104.066 19.128C105.425 19.0446 105.862 19.3521 106.848 20.4336L107.597 32.6434C107.779 35.6126 107.388 36.0544 105.128 36.4437L105.16 36.971L111.654 36.5727L111.621 36.0454C109.466 35.8712 108.993 35.4267 108.818 32.5685L108.157 21.8017L121.329 36.2856L121.829 36.2549L120.947 21.8807C120.813 19.6885 121.053 19.061 121.551 18.5569C121.893 18.2295 122.304 18.1207 123.352 17.945L123.319 17.4178Z" fill="#A3660C"></path><path d="M145.745 20.6973L140.149 19.7729L140.063 20.2941C141.142 20.5851 142.029 20.6752 141.852 21.745C141.775 22.2113 141.47 22.8653 141.005 23.6338L135.301 33.0894L132.681 23.0196C132.162 21.0459 132.024 20.3468 132.096 19.9079C132.187 19.3593 132.584 19.1713 133.471 19.2615L134.248 19.3335L134.334 18.8123L127.065 17.6116L126.979 18.1327C128.346 18.3867 128.703 18.7838 129.443 21.6394L133.671 37.6669L134.082 37.7349L142.723 23.2977C143.854 21.3993 144.557 21.0646 145.659 21.2185L145.745 20.6973Z" fill="#A3660C"></path><path d="M159.552 40.2241L158.82 39.9517C156.613 42.2839 155.236 42.545 151.499 41.1535L150.558 40.8032C148.624 40.0832 147.967 39.6898 148.376 38.5922L150.74 32.2417L154.687 33.711C156.934 34.5478 157.2 35.0335 156.696 37.3455L157.297 37.5693L159.574 31.4541L158.973 31.2303C157.89 33.1781 157.333 33.4764 155.086 32.6395L151.139 31.1702L153.28 25.4208C153.591 24.5846 153.813 24.5481 154.545 24.8206L157.969 26.0953C161 27.224 161.455 27.8399 160.971 30.3378L161.625 30.5811L162.912 26.8051L149.061 21.6479L148.876 22.1444C150.797 22.9787 150.965 23.4875 150.245 25.4214L146.002 36.8156C145.253 38.8279 144.865 39.0703 142.804 38.4518L142.619 38.9483L156.705 44.1931L159.552 40.2241Z" fill="#A3660C"></path><path d="M183.698 39.511L178.165 35.933L177.878 36.3765C178.83 37.1575 179.22 37.476 179.33 38.1762C179.423 38.7995 179.064 39.5603 178.294 40.7509L173.161 48.6883L171.441 31.585L167.472 29.0185L167.186 29.4621C168.329 30.2018 168.499 30.7084 168.65 32.1638L162.007 42.4358C160.392 44.9338 159.815 45.0575 157.765 44.0296L157.478 44.4732L162.941 48.0059L163.228 47.5624C161.596 46.1431 161.479 45.5046 163.034 43.1001L168.892 34.042L170.899 53.5165L171.319 53.7883L179.14 41.6953C180.332 39.851 180.898 39.4884 181.598 39.3783C182.068 39.3178 182.463 39.4742 183.411 39.9545L183.698 39.511Z" fill="#A3660C"></path><path d="M200.153 55.5589L195.638 50.9149L195.257 51.2846C196.734 53.0033 196.546 53.6917 194.485 55.6962L189.22 60.8145C187.599 62.3908 186.72 63.0892 185.277 63.2071C183.914 63.2866 182.384 62.5938 181.138 61.3127C180.029 60.1717 179.552 59.0001 179.548 57.8747C179.55 56.3151 180.373 55.3592 181.934 53.8413L188.18 47.7694C189.681 46.3098 190.135 46.2964 191.832 47.7616L192.213 47.3918L186.705 41.727L186.325 42.0967C187.742 43.7948 187.736 44.2291 186.395 45.533L180.19 51.566C178.068 53.6289 177.172 55.5116 177.422 57.4104C177.6 58.8344 178.389 60.2473 179.81 61.7086C181.6 63.5502 183.424 64.4248 185.202 64.3314C187.099 64.2397 188.355 63.3689 190.297 61.4812L195.401 56.5186C197.303 54.6698 197.978 54.4029 199.772 55.9286L200.153 55.5589Z" fill="#A3660C"></path><path d="M206.624 74.4807L210.489 71.7651L202.052 58.6405L197.977 61.0292L198.337 61.5897C201.206 60.4053 202.032 60.7656 203.623 63.2411L204.524 64.6423L192.918 72.1037C190.862 73.4248 190.44 73.3331 189.078 71.4698L188.634 71.7551L193.018 78.5743L193.461 78.289C192.324 76.314 192.394 75.8069 194.169 74.6659L206.056 67.0243L206.941 68.4022C208.533 70.8776 208.503 71.7551 206.264 73.9203L206.624 74.4807Z" fill="#A3660C"></path><path d="M210.373 95.8636C215.547 93.937 218.114 89.0831 216.207 83.9609C214.309 78.8648 209.392 76.7677 204.087 78.7431C198.652 80.767 196.287 85.6051 198.175 90.675C200.043 95.6926 204.989 97.8681 210.373 95.8636ZM209.42 92.826C206.284 93.9937 203.555 94.1766 201.635 93.255C200.432 92.6614 199.612 91.6575 199.125 90.3508C198.678 89.1487 198.615 87.8626 199.095 86.6724C199.965 84.5333 202.034 82.8997 205.144 81.7417C207.627 80.8173 210.415 80.5529 212.114 81.1999C213.669 81.7812 214.731 82.8738 215.256 84.285C215.714 85.5133 215.659 86.7241 215.225 87.9568C214.525 89.9135 212.399 91.7167 209.42 92.826Z" fill="#A3660C"></path><path d="M230.651 169.182C231.506 167.23 231.835 165.087 231.604 162.967C231.373 160.848 230.591 158.826 229.335 157.103L229.196 156.914L229.422 156.849C231.456 156.22 233.293 155.075 234.752 153.525C236.209 151.977 237.23 150.071 237.71 148C238.19 145.929 238.113 143.768 237.487 141.737C236.861 139.713 235.721 137.887 234.178 136.436L233.916 136.188L234.236 136.021C236.101 135.033 237.678 133.577 238.81 131.796C239.93 130.022 240.562 127.983 240.643 125.887C240.723 123.79 240.249 121.71 239.268 119.855C238.289 118.017 236.851 116.464 235.094 115.346L234.534 114.997L235.058 114.575C236.677 113.281 237.93 111.586 238.694 109.659C239.832 106.78 239.783 103.567 238.556 100.725C237.329 97.8828 235.025 95.6429 232.149 94.4967L231.218 94.1258L231.88 93.355C233.203 91.8165 234.1 89.9588 234.483 87.9663C235.057 84.9923 234.426 81.9121 232.73 79.403C231.034 76.8938 228.41 75.161 225.437 74.5854L224.106 74.3236L224.833 73.1309C225.824 71.4117 226.353 69.4649 226.367 67.4804C226.382 65.5118 225.88 63.5736 224.913 61.859C223.95 60.1517 222.552 58.7293 220.862 57.7356C219.173 56.7464 217.257 56.2104 215.299 56.1794H213.648L214.208 54.6013C214.871 52.7766 215.042 50.8101 214.707 48.8981C214.372 46.9861 213.54 45.1956 212.297 43.7052C211.053 42.2149 209.44 41.0768 207.619 40.4047C205.798 39.7327 203.832 39.55 201.918 39.8751L200.144 40.1805L200.435 38.3916C200.752 36.4856 200.564 34.5299 199.892 32.7185C199.22 30.9071 198.086 29.3029 196.602 28.065C195.116 26.8299 193.332 26.0072 191.427 25.6791C189.523 25.3511 187.566 25.5294 185.752 26.1961L184.043 26.8142V25.0034C184.003 23.0735 183.462 21.187 182.473 19.5295C181.483 17.872 180.08 16.5004 178.4 15.5495C176.712 14.5877 174.801 14.0862 172.859 14.0951C170.914 14.1184 169.01 14.6472 167.332 15.6295L165.877 16.4949L165.543 14.8368C165.15 12.924 164.274 11.1438 162.997 9.66629C161.711 8.18456 160.057 7.0682 158.202 6.4298C156.347 5.79141 154.356 5.65356 152.431 6.03018C150.492 6.40911 148.685 7.2863 147.188 8.57546L146.089 9.52812L145.559 8.19003C145.004 6.79647 144.179 5.52643 143.132 4.45311C142.084 3.3798 140.834 2.52442 139.455 1.9363C138.075 1.34818 136.592 1.03894 135.093 1.0264C133.593 1.01385 132.105 1.29825 130.716 1.86321C128.848 2.60691 127.204 3.82209 125.945 5.39024L125.218 6.30653L124.6 5.32478C123.502 3.62318 121.978 2.23779 120.18 1.30562C118.382 0.373443 116.371 -0.0732269 114.348 0.00977681C112.324 0.0927805 110.357 0.702585 108.641 1.77888C106.926 2.85518 105.521 4.3607 104.565 6.14654L104.143 6.93921L103.54 6.28472C102.147 4.79242 100.394 3.68307 98.4492 3.06312C96.4791 2.46097 94.3851 2.38861 92.3782 2.85333C90.3712 3.31804 88.5222 4.30342 87.0172 5.7102C85.507 7.12278 84.3915 8.90501 83.7811 10.8808L83.5629 11.608L82.9739 11.1716C81.3022 9.94705 79.3386 9.18238 77.279 8.95396C75.2194 8.72554 73.1359 9.04137 71.2365 9.86991C69.3367 10.705 67.6892 12.024 66.4587 13.6951C65.2285 15.3716 64.4543 17.3386 64.2116 19.4038L64.1389 20.0292L63.5789 19.7601C61.7011 18.863 59.62 18.4766 57.5453 18.6401C55.4707 18.8035 53.4757 19.5109 51.7616 20.691C50.0523 21.8688 48.6809 23.4733 47.7836 25.3452C46.897 27.2221 46.5112 29.2965 46.6637 31.3666L46.7146 32.0502L46.0529 31.8757C44.0488 31.3447 41.941 31.3447 39.9369 31.8757C36.9299 32.6903 34.3677 34.6621 32.8101 37.3602C31.2526 40.0583 30.8264 43.2633 31.6248 46.2746L31.8284 47.0019L31.0503 46.951C28.9952 46.8145 26.9401 47.2155 25.0871 48.1145C23.2453 49.0092 21.6711 50.3725 20.5223 52.0675C19.3736 53.7625 18.6907 55.7298 18.5421 57.772C18.4011 59.8055 18.792 61.8406 19.6765 63.6771L20.1056 64.5788L19.1093 64.6952C17.094 64.9244 15.1737 65.6765 13.5388 66.8768C11.0912 68.6873 9.46219 71.3952 9.00951 74.4058C8.55683 77.4164 9.31747 80.4837 11.1244 82.9339L11.8516 83.9302L10.6517 84.3083C8.74436 84.9086 7.02542 85.9936 5.66296 87.4572C4.65007 88.5456 3.8616 89.823 3.34263 91.2162C2.82365 92.6095 2.58435 94.0914 2.63838 95.5772C2.69241 97.063 3.03872 98.5236 3.65753 99.8755C4.27633 101.227 5.15548 102.444 6.24475 103.456L7.34284 104.474L6.00475 105.201C4.26688 106.127 2.79671 107.484 1.73596 109.143C0.152122 111.64 -0.375989 114.664 0.26756 117.551C0.911109 120.437 2.67372 122.95 5.16845 124.538L6.57926 125.44L5.25571 126.487C3.73234 127.702 2.54973 129.29 1.82323 131.098C0.743237 133.814 0.781742 136.848 1.93031 139.536C3.07887 142.224 5.24424 144.349 7.95372 145.446L9.66267 146.173L8.44823 147.562C7.18389 149.013 6.317 150.767 5.93205 152.653C5.5566 154.538 5.68198 156.489 6.29566 158.31C6.9097 160.13 7.99341 161.756 9.43724 163.023C10.8856 164.293 12.6403 165.162 14.5278 165.546L16.4331 165.932L15.4441 167.604C14.4681 169.255 13.9416 171.133 13.9169 173.051C13.8952 174.96 14.3747 176.841 15.3076 178.506C16.2404 180.172 17.594 181.563 19.2329 182.541C20.8753 183.514 22.7423 184.043 24.6507 184.076H26.6869L25.9597 186.003C25.312 187.79 25.1424 189.715 25.4677 191.587C25.7929 193.46 26.6018 195.215 27.8141 196.679C29.0324 198.132 30.61 199.24 32.39 199.893C34.1699 200.546 36.09 200.722 37.9589 200.402L40.0606 200.046L39.7115 202.162C39.408 204.029 39.5934 205.943 40.2496 207.718C40.9095 209.485 42.0201 211.05 43.4712 212.256C44.9311 213.47 46.6883 214.273 48.5618 214.583C50.4241 214.9 52.3369 214.724 54.1105 214.074L56.154 213.347L56.1976 215.528C56.2416 218.378 57.4155 221.093 59.4611 223.077C61.5066 225.061 64.2564 226.152 67.1059 226.109C68.9945 226.077 70.843 225.559 72.4728 224.604L74.3491 223.499L74.7781 225.622C75.1613 227.473 76.0154 229.194 77.2579 230.618C79.1528 232.761 81.8194 234.067 84.6745 234.25C87.5295 234.433 90.3407 233.477 92.4932 231.593L94.0713 230.211L94.864 232.153C95.5866 233.911 96.756 235.45 98.2566 236.617C99.7571 237.784 101.537 238.538 103.419 238.806C105.301 239.073 107.22 238.844 108.986 238.142C110.752 237.439 112.304 236.287 113.488 234.8L114.724 233.251L115.772 234.909C116.804 236.526 118.24 237.847 119.939 238.741C121.644 239.637 123.555 240.068 125.48 239.991C127.405 239.915 129.276 239.333 130.905 238.305C132.542 237.268 133.882 235.825 134.796 234.116L135.617 232.567L136.796 233.832C138.812 235.985 141.597 237.256 144.545 237.367C147.493 237.479 150.366 236.423 152.54 234.429C153.99 233.087 155.07 231.394 155.674 229.513L156.111 228.131L157.252 228.982C159.675 230.784 162.713 231.551 165.7 231.114C168.688 230.678 171.38 229.074 173.186 226.655C174.396 225.035 175.163 223.127 175.411 221.121L175.542 220.066L176.48 220.524C177.854 221.199 179.347 221.595 180.875 221.691C182.402 221.788 183.934 221.581 185.381 221.085C186.829 220.588 188.164 219.811 189.311 218.798C190.458 217.784 191.394 216.555 192.064 215.179C192.976 213.322 193.387 211.259 193.257 209.194L193.213 208.467L193.882 208.649C196.912 209.48 200.148 209.079 202.883 207.532C205.618 205.986 207.629 203.42 208.478 200.395C209.036 198.364 209.054 196.223 208.529 194.184L208.427 193.799H208.82C210.926 193.966 213.039 193.58 214.95 192.679C216.871 191.776 218.519 190.381 219.726 188.635C220.933 186.889 221.657 184.854 221.822 182.738C221.987 180.619 221.599 178.494 220.695 176.571L220.593 176.346H220.833C222.952 176.114 224.973 175.332 226.696 174.076C228.418 172.821 229.782 171.136 230.651 169.19V169.182ZM199.613 197.29C189.453 207.667 177.31 215.895 163.906 221.484C150.565 227.062 136.261 229.978 121.8 230.065C92.7374 230.222 64.7305 219.18 43.5948 199.231C33.0916 189.3 24.637 177.406 18.7093 164.223C12.7403 150.973 9.51077 136.654 9.2146 122.125C8.91842 107.596 11.5617 93.1576 16.9858 79.6759C25.1476 59.4281 39.1619 42.074 57.2375 29.8322C75.1999 17.596 96.3195 10.8197 118.048 10.3208C119.851 10.3208 121.648 10.2699 123.444 10.3208C125.24 10.3717 127.08 10.4517 128.84 10.6117C130.6 10.7717 132.425 10.9026 134.207 11.1498C135.988 11.3971 137.785 11.6153 139.552 11.9425C146.652 13.1843 153.616 15.1133 160.343 17.7021C173.908 22.8924 186.304 30.7298 196.81 40.7579C207.317 50.7859 215.723 62.8041 221.539 76.1125C227.393 89.4478 230.568 103.804 230.884 118.364C231.162 132.936 228.541 147.417 223.172 160.966C217.804 174.516 209.796 186.863 199.613 197.29Z" fill="#A3660C"></path><path d="M159.736 205.072C158.612 206.044 158.217 206.492 157.886 207.312C157.543 208.169 157.66 209.384 158.173 210.398C159.499 213.021 162.464 213.417 166.745 211.253L173.673 207.75L173.435 207.28C171.369 208.169 170.885 208.134 169.896 206.18L164.429 195.367C163.478 193.486 163.699 192.878 165.629 191.84L165.391 191.37L157.052 195.586C153.465 197.4 151.977 200.234 153.366 202.98C153.916 204.069 154.862 204.895 156.017 205.213C157.06 205.493 157.953 205.601 159.724 205.047L159.736 205.072ZM165.071 202.903L167.911 208.52C168.198 209.089 168.138 209.399 167.717 209.612L166.703 210.125C163.758 211.613 161.685 211.077 160.634 208.999C159.596 206.945 160.295 205.317 162.794 204.054L165.071 202.903ZM164.57 201.913C161.6 203.29 160.71 203.865 158.725 203.626C157.633 203.494 156.824 202.754 156.224 201.566C155.686 200.502 155.582 199.498 155.925 198.641C156.526 197.126 157.342 196.589 159.421 195.538C160.559 194.962 161.092 195.034 161.518 195.876L164.57 201.913Z" fill="#A3660C"></path><path d="M135.502 207.977L136.253 207.771C136.68 204.598 137.642 203.585 141.476 202.534L142.442 202.269C144.426 201.725 145.187 201.661 145.495 202.787L147.281 209.302L143.233 210.412C140.927 211.044 140.429 210.806 139.49 208.642L138.873 208.811L140.593 215.085L141.21 214.916C140.951 212.71 141.228 212.144 143.534 211.511L147.583 210.402L149.2 216.3C149.435 217.158 149.277 217.317 148.526 217.523L145.013 218.486C141.903 219.338 141.176 219.105 140.113 216.802L139.442 216.986L140.601 220.791L154.811 216.895L154.672 216.386C152.631 216.83 152.199 216.516 151.655 214.532L148.451 202.842C147.885 200.777 148.057 200.355 150.085 199.655L149.945 199.145L135.493 203.107L135.502 207.977Z" fill="#A3660C"></path><path d="M116.537 223.099L123.113 222.696L123.081 222.169C121.851 222.105 121.349 222.08 120.844 221.582C120.399 221.135 120.237 220.31 120.15 218.895L119.572 209.46L131.105 222.206L135.823 221.916L135.79 221.389C134.43 221.472 133.994 221.165 133.008 220.083L132.259 207.874C132.077 204.904 132.468 204.463 134.728 204.073L134.696 203.546L128.202 203.944L128.235 204.472C130.39 204.646 130.863 205.09 131.038 207.949L131.699 218.715L118.527 204.232L118.027 204.262L118.909 218.636C119.043 220.829 118.803 221.456 118.305 221.96C117.963 222.288 117.552 222.396 116.504 222.572L116.537 223.099Z" fill="#A3660C"></path><path d="M94.1038 219.82L99.6995 220.744L99.7856 220.223C98.7065 219.932 97.8197 219.842 97.9964 218.772C98.0734 218.306 98.3787 217.652 98.8438 216.883L104.548 207.428L107.168 217.497C107.687 219.471 107.825 220.17 107.753 220.609C107.662 221.158 107.265 221.346 106.378 221.256L105.601 221.184L105.515 221.705L112.784 222.906L112.87 222.384C111.503 222.13 111.146 221.733 110.406 218.878L106.178 202.85L105.766 202.782L97.1257 217.219C95.995 219.118 95.2916 219.452 94.1899 219.299L94.1038 219.82Z" fill="#A3660C"></path><path d="M80.2968 200.293L81.0285 200.565C83.236 198.233 84.6127 197.972 88.3498 199.364L89.2906 199.714C91.2245 200.434 91.8815 200.827 91.4728 201.925L89.1083 208.275L85.1621 206.806C82.9146 205.969 82.6491 205.484 83.1529 203.172L82.5518 202.948L80.2748 209.063L80.8759 209.287C81.9582 207.339 82.5156 207.041 84.7631 207.878L88.7093 209.347L86.5686 215.096C86.2572 215.933 86.0353 215.969 85.3036 215.696L81.8801 214.422C78.8486 213.293 78.3935 212.677 78.8772 210.179L78.2239 209.936L76.937 213.712L90.7878 218.869L90.9726 218.373C89.0515 217.538 88.8839 217.03 89.604 215.096L93.8465 203.701C94.5958 201.689 94.9836 201.447 97.0445 202.065L97.2294 201.569L83.1434 196.324L80.2968 200.293Z" fill="#A3660C"></path><path d="M56.1511 201.006L61.684 204.584L61.9708 204.141C61.0191 203.36 60.6291 203.041 60.5191 202.341C60.4255 201.718 60.7851 200.957 61.555 199.766L66.688 191.829L68.4075 208.932L72.3762 211.499L72.6631 211.055C71.5191 210.315 71.3501 209.809 71.1987 208.353L77.8414 198.081C79.4568 195.583 80.0334 195.46 82.0836 196.488L82.3705 196.044L76.9077 192.511L76.6208 192.955C78.2523 194.374 78.3692 195.013 76.8142 197.417L70.9565 206.475L68.9495 187.001L68.5293 186.729L60.709 198.822C59.5163 200.666 58.9507 201.029 58.2505 201.139C57.7809 201.199 57.3855 201.043 56.438 200.563L56.1511 201.006Z" fill="#A3660C"></path><path d="M39.6949 184.966L44.2099 189.61L44.5902 189.24C43.1139 187.521 43.3013 186.833 45.3631 184.828L50.6276 179.71C52.249 178.134 53.1275 177.435 54.5704 177.317C55.9338 177.238 57.464 177.931 58.7095 179.212C59.8188 180.353 60.2959 181.524 60.2998 182.65C60.2976 184.209 59.4746 185.165 57.9133 186.683L51.6679 192.755C50.1666 194.215 49.7124 194.228 48.0153 192.763L47.635 193.133L53.1425 198.797L53.5229 198.428C52.1055 196.73 52.1116 196.295 53.4528 194.991L59.6581 188.958C61.78 186.896 62.6752 185.013 62.4255 183.114C62.2481 181.69 61.4586 180.277 60.0379 178.816C58.2475 176.974 56.4237 176.1 54.6455 176.193C52.7489 176.285 51.4928 177.156 49.5511 179.043L44.4467 184.006C42.5451 185.855 41.8701 186.122 40.0752 184.596L39.6949 184.966Z" fill="#A3660C"></path><path d="M33.2028 165.941L29.3174 168.64L37.6941 181.829L41.7881 179.459L41.4304 178.896C38.5507 180.066 37.7259 179.701 36.1459 177.213L35.2516 175.805L46.9155 168.397C48.9807 167.086 49.4028 167.18 50.7573 169.053L51.2032 168.77L46.8509 161.917L46.405 162.2C47.5333 164.184 47.4604 164.692 45.6768 165.825L33.7313 173.411L32.8519 172.027C31.272 169.539 31.3069 168.661 33.5605 166.505L33.2028 165.941Z" fill="#A3660C"></path><path d="M29.4837 144.653C24.3093 146.58 21.7424 151.434 23.6496 156.556C25.547 161.652 30.464 163.749 35.7691 161.774C41.2049 159.75 43.5695 154.912 41.6817 149.842C39.8135 144.824 34.8673 142.649 29.4837 144.653ZM30.4362 147.691C33.5723 146.523 36.3013 146.34 38.2215 147.262C39.4245 147.856 40.2447 148.86 40.7312 150.166C41.1788 151.368 41.2411 152.655 40.7618 153.845C39.8919 155.984 37.822 157.617 34.7121 158.775C32.2294 159.7 29.4415 159.964 27.7425 159.317C26.187 158.736 25.1255 157.643 24.6001 156.232C24.1428 155.004 24.1978 153.793 24.6315 152.56C25.3313 150.604 27.457 148.8 30.4362 147.691Z" fill="#A3660C"></path><path d="M31.4871 90.5262C34.3307 90.5262 36.6358 88.2211 36.6358 85.3775C36.6358 82.5339 34.3307 80.2288 31.4871 80.2288C28.6435 80.2288 26.3384 82.5339 26.3384 85.3775C26.3384 88.2211 28.6435 90.5262 31.4871 90.5262Z" fill="#A3660C"></path><path d="M208.369 160.274C211.213 160.274 213.518 157.969 213.518 155.125C213.518 152.281 211.213 149.976 208.369 149.976C205.526 149.976 203.221 152.281 203.221 155.125C203.221 157.969 205.526 160.274 208.369 160.274Z" fill="#A3660C"></path></svg>