<svg width="1360" height="91" viewBox="0 0 1360 91" fill="none" xmlns="http://www.w3.org/2000/svg">
<rect y="43" width="620" height="5" fill="#D09A4B"/>
<rect x="740" y="43" width="620" height="5" fill="#D09A4B"/>
<path fill-rule="evenodd" clip-rule="evenodd" d="M680.506 2.10034C688.13 2.10034 695.607 4.11027 702.203 7.91558C708.81 11.7209 714.288 17.1974 718.094 23.7917C721.9 30.3974 723.911 37.8725 723.911 45.4944C723.911 53.1164 721.9 60.5915 718.094 67.1971C714.288 73.7915 708.81 79.268 702.214 83.0733C695.607 86.8786 688.13 88.8885 680.506 88.8885C672.882 88.8885 665.405 86.8786 658.809 83.0733C652.202 79.268 646.724 73.7915 642.918 67.1971C639.111 60.5915 637.101 53.1164 637.101 45.4944C637.101 37.8725 639.111 30.3974 642.918 23.803C646.724 17.1974 652.202 11.7209 658.798 7.91558C665.405 4.11027 672.882 2.10034 680.506 2.10034Z" stroke="#D09A4B"/>
<path fill-rule="evenodd" clip-rule="evenodd" d="M652.44 37.2412C651.141 36.462 650.102 35.4119 649.345 34.0908C648.577 32.7583 648.204 31.3017 648.204 29.7322C648.204 28.1739 648.577 26.7286 649.345 25.4074C650.102 24.0637 651.141 23.0136 652.44 22.2345C653.738 21.4553 655.162 21.0714 656.72 21.0714C657.963 21.0714 659.115 21.3198 660.199 21.8167C661.294 22.3135 662.221 22.991 663.011 23.8605C663.079 23.9282 663.113 24.0073 663.113 24.0976C663.113 24.2105 663.068 24.3008 662.989 24.3686L661.249 25.8704C661.17 25.9494 661.08 25.9946 660.989 25.9946C660.888 25.9946 660.809 25.9494 660.741 25.8704C660.233 25.2945 659.623 24.8654 658.923 24.5493C658.222 24.2331 657.488 24.075 656.72 24.075C655.726 24.075 654.789 24.3347 653.953 24.8428C653.106 25.3397 652.428 26.0398 651.931 26.9092C651.434 27.7787 651.186 28.7159 651.186 29.7322C651.186 30.7371 651.434 31.6856 651.931 32.5551C652.428 33.4133 653.106 34.1134 653.953 34.6215C654.789 35.1296 655.726 35.378 656.72 35.378C657.454 35.378 658.155 35.2425 658.821 34.9602C659.476 34.6779 660.063 34.2827 660.583 33.752C660.718 33.6278 660.877 33.5601 661.035 33.5601C661.181 33.5601 661.294 33.6052 661.373 33.6843L661.837 34.0795L662.797 34.9489C662.955 35.0619 663.034 35.2086 663.034 35.4006C663.034 35.5135 663 35.6152 662.921 35.6942C662.13 36.5411 661.204 37.2073 660.131 37.6815C659.058 38.1558 657.929 38.3929 656.72 38.3929C655.162 38.3929 653.738 38.009 652.44 37.2412Z" fill="#D09A4B"/>
<path fill-rule="evenodd" clip-rule="evenodd" d="M712.978 27.5404C712.966 27.4727 712.944 27.4049 712.91 27.3485C712.718 26.671 712.435 26.0047 712.074 25.3498C711.95 25.1127 711.758 24.9885 711.498 24.9885C711.385 24.9885 711.261 25.0337 711.137 25.1127C711.035 25.1804 710.809 25.3385 710.436 25.6095C710.064 25.8692 709.815 26.0386 709.691 26.1177C709.499 26.2757 709.397 26.4564 709.397 26.671C709.397 26.829 709.442 26.9871 709.521 27.1452C709.917 27.9356 710.12 28.7938 710.12 29.7084C710.12 30.2391 710.041 30.7699 709.894 31.2893C709.713 31.8764 709.454 32.4184 709.104 32.9266C708.719 33.4686 708.256 33.9202 707.703 34.3042C707.025 34.7897 706.291 35.0946 705.489 35.2188C705.286 35.2527 705.094 35.264 704.891 35.2752H704.879C704.834 35.2752 704.8 35.2865 704.755 35.2865C704.721 35.2865 704.676 35.2865 704.642 35.2865C704.62 35.2865 704.62 35.2865 704.608 35.2865C704.529 35.2865 704.461 35.2865 704.382 35.2752C704.371 35.2752 704.36 35.2752 704.36 35.2752C704.292 35.2752 704.224 35.2752 704.157 35.264C704.111 35.264 704.077 35.264 704.032 35.2527C704.021 35.2527 703.998 35.2527 703.976 35.2527C703.682 35.2188 703.4 35.1623 703.117 35.0833C702.892 35.0155 702.688 34.9478 702.485 34.8575C701.977 34.6429 701.502 34.3493 701.051 33.9767C700.971 33.909 700.892 33.8412 700.825 33.7734C700.813 33.7622 700.802 33.7509 700.791 33.7396C700.746 33.6944 700.689 33.6379 700.644 33.5928C700.61 33.5589 700.576 33.5137 700.542 33.4799C700.508 33.4573 700.486 33.4234 700.463 33.4008C700.429 33.3669 700.395 33.3218 700.362 33.2879C700.057 32.9153 699.808 32.5088 699.605 32.0571C699.266 31.3119 699.097 30.5327 699.097 29.731C699.097 29.5616 699.097 29.4036 699.108 29.2455C699.119 29.2116 699.119 29.1664 699.119 29.1326C699.13 29.1213 699.13 29.1213 699.13 29.11C699.164 28.8164 699.221 28.5228 699.3 28.2405C699.661 26.9532 700.407 25.9144 701.525 25.124C702.112 24.6836 702.767 24.39 703.501 24.2319C704.224 24.0852 704.958 24.0739 705.67 24.2094C706.009 24.2658 706.212 24.1529 706.302 23.8593L706.867 21.8381C706.89 21.6913 706.867 21.5558 706.811 21.4429C706.754 21.33 706.664 21.2509 706.54 21.2171L706.494 21.2058C705.342 20.9573 704.179 20.9461 703.016 21.1493C702.959 21.1606 702.903 21.1719 702.846 21.1832C702.835 21.1832 702.824 21.1832 702.801 21.1832C702.801 21.1945 702.79 21.1945 702.779 21.1945C702.09 21.3413 701.412 21.5784 700.757 21.8946C699.695 22.414 698.769 23.1592 697.99 24.1303C697.323 24.9094 696.826 25.8015 696.499 26.75C696.171 27.7098 696.013 28.6809 696.013 29.6858C696.013 29.8213 696.013 29.9681 696.013 30.1149C696.036 30.4424 696.058 30.7699 696.115 31.1086C696.307 32.3846 696.759 33.5702 697.493 34.6768C698.024 35.5124 698.701 36.2238 699.526 36.8109C699.921 37.0932 700.328 37.3416 700.768 37.5562C700.791 37.5675 700.802 37.5788 700.825 37.5788C701.084 37.7143 701.344 37.8272 701.627 37.9288C702.575 38.2676 703.558 38.4369 704.563 38.4369C705.049 38.4369 705.523 38.4031 705.986 38.3353C705.986 38.3353 705.998 38.324 706.009 38.324C706.574 38.245 707.116 38.0982 707.635 37.8949C707.85 37.8159 708.064 37.7368 708.279 37.6352C709.454 37.0932 710.448 36.3254 711.227 35.3091C711.893 34.5187 712.39 33.6379 712.729 32.6782C712.921 32.1361 713.057 31.5716 713.136 31.007C713.316 29.8552 713.271 28.7035 712.978 27.5404Z" fill="#D09A4B"/>
<path fill-rule="evenodd" clip-rule="evenodd" d="M682.008 38.0307C681.917 37.9403 681.883 37.8387 681.883 37.7258V29.3022C681.883 29.178 681.917 29.065 682.008 28.986C682.098 28.8957 682.2 28.8505 682.312 28.8505H687.655C688.265 28.8505 688.784 28.6359 689.236 28.1956C689.677 27.7665 689.891 27.2471 689.891 26.6373C689.891 26.005 689.677 25.4743 689.236 25.0452C688.784 24.6048 688.265 24.3903 687.655 24.3903H682.312C682.2 24.3903 682.098 24.3451 682.008 24.2548C681.917 24.1644 681.883 24.0628 681.883 23.9273V21.7141C681.883 21.5899 681.917 21.477 682.008 21.3867C682.098 21.2963 682.2 21.2625 682.312 21.2625H687.655C688.615 21.2625 689.507 21.4996 690.332 21.9851C691.145 22.4594 691.8 23.1143 692.286 23.9499C692.76 24.7742 693.008 25.6662 693.008 26.6373C693.008 27.5971 692.76 28.4892 692.286 29.3022C691.8 30.1377 691.145 30.7927 690.332 31.2669C689.507 31.7525 688.615 31.9896 687.655 31.9896H685.475C685.294 31.9896 685.17 32.0235 685.114 32.0686C685.046 32.1138 685.012 32.2154 685.012 32.3509V37.7258C685.012 37.8613 684.967 37.9629 684.876 38.042C684.786 38.121 684.684 38.1662 684.549 38.1662H682.312C682.2 38.1662 682.098 38.121 682.008 38.0307Z" fill="#D09A4B"/>
<path fill-rule="evenodd" clip-rule="evenodd" d="M675.401 38.0645C675.311 37.9968 675.243 37.9065 675.209 37.8161L674.17 33.8979C674.125 33.7624 674.034 33.6382 673.91 33.5366C673.775 33.4462 673.639 33.4011 673.492 33.4011H668.59C668.477 33.4011 668.387 33.3559 668.308 33.2881C668.24 33.2204 668.206 33.1301 668.206 33.0397L669.031 30.6007C669.031 30.4991 669.076 30.42 669.144 30.341C669.212 30.2507 669.313 30.2168 669.426 30.2168H672.577C672.724 30.2168 672.848 30.1603 672.927 30.0587C673.018 29.9571 673.04 29.8329 672.995 29.6748L671.629 24.7516C671.595 24.6274 671.516 24.5145 671.391 24.4128C671.256 24.3225 671.12 24.266 670.985 24.266H670.815C670.68 24.266 670.556 24.3225 670.42 24.4128C670.296 24.5145 670.217 24.6274 670.183 24.7516L669.415 27.5068C669.381 27.5971 669.336 27.6761 669.234 27.7213C669.144 27.7552 669.053 27.7439 668.94 27.7439L666.546 27.6761C666.444 27.6536 666.365 27.5971 666.309 27.5068C666.264 27.4051 666.252 27.3148 666.275 27.2132L667.8 21.6464C667.822 21.5447 667.901 21.4544 668.003 21.3754C668.105 21.2963 668.206 21.2625 668.297 21.2625H673.503C673.594 21.2625 673.695 21.2963 673.808 21.3641C673.921 21.4431 674 21.5222 674.034 21.6238L678.473 37.8387V37.8839C678.473 38.0758 678.371 38.1775 678.179 38.1775H675.717C675.604 38.1775 675.503 38.1323 675.401 38.0645Z" fill="#D09A4B"/>
<path fill-rule="evenodd" clip-rule="evenodd" d="M714.683 42.965C714.627 42.9086 714.559 42.886 714.491 42.886H712.921C712.842 42.886 712.774 42.9086 712.718 42.965C712.65 43.0215 712.627 43.0892 712.627 43.1796V46.0025V46.409V53.4663C712.627 53.5454 712.65 53.6018 712.707 53.6696C712.763 53.726 712.831 53.7486 712.921 53.7486H714.491C714.57 53.7486 714.638 53.726 714.683 53.6696C714.74 53.6018 714.762 53.5454 714.762 53.4663V46.409V46.0025V43.1796C714.762 43.0892 714.74 43.0215 714.683 42.965Z" fill="#D09A4B"/>
<path fill-rule="evenodd" clip-rule="evenodd" d="M682.788 42.965C682.731 42.9086 682.663 42.886 682.596 42.886H681.026C680.947 42.886 680.879 42.9086 680.822 42.965C680.755 43.0215 680.732 43.0892 680.732 43.1796V46.0025V46.409V53.4663C680.732 53.5454 680.755 53.6018 680.811 53.6696C680.867 53.726 680.935 53.7486 681.026 53.7486H682.596C682.675 53.7486 682.742 53.726 682.788 53.6696C682.844 53.6018 682.867 53.5454 682.867 53.4663V46.409V46.0025V43.1796C682.867 43.0892 682.844 43.0215 682.788 42.965Z" fill="#D09A4B"/>
<path fill-rule="evenodd" clip-rule="evenodd" d="M685.87 44.8395C685.814 44.783 685.791 44.7265 685.791 44.6475V43.1796C685.791 43.0892 685.814 43.0215 685.87 42.965C685.927 42.9086 685.994 42.886 686.062 42.886H691.167C691.246 42.886 691.303 42.9086 691.359 42.965C691.416 43.0215 691.45 43.0892 691.45 43.1796V44.6475C691.45 44.7265 691.427 44.783 691.37 44.8395C691.325 44.9072 691.258 44.9298 691.167 44.9298H686.062C685.994 44.9298 685.927 44.9072 685.87 44.8395Z" fill="#D09A4B"/>
<path fill-rule="evenodd" clip-rule="evenodd" d="M691.359 46.7818C691.303 46.7253 691.246 46.7028 691.167 46.7028H686.062C685.983 46.7028 685.927 46.7253 685.87 46.7705C685.814 46.827 685.791 46.8947 685.791 46.9738V46.9963V48.4417V53.4665C685.791 53.5343 685.814 53.602 685.87 53.6585C685.927 53.7149 685.994 53.7375 686.062 53.7375H687.609C687.688 53.7375 687.756 53.7149 687.813 53.6585C687.869 53.602 687.903 53.5343 687.903 53.4665V49.0176C687.903 48.9272 687.926 48.8595 687.982 48.8143C688.039 48.7579 688.106 48.7353 688.185 48.7353H690.682H691.167C691.258 48.7353 691.325 48.7014 691.37 48.6449C691.427 48.5885 691.45 48.532 691.45 48.4417V46.9963C691.45 46.906 691.416 46.8383 691.359 46.7818Z" fill="#D09A4B"/>
<path fill-rule="evenodd" clip-rule="evenodd" d="M704.337 53.5905V45.3702C704.337 45.2685 704.303 45.1895 704.236 45.1217C704.157 45.054 704.078 45.0201 703.965 45.0201H703.084C703.038 45.0201 702.993 44.9975 702.948 44.9524C702.903 44.9185 702.892 44.862 702.892 44.8056V43.2134C702.892 43.1457 702.903 43.1005 702.948 43.0554C702.993 43.0102 703.038 42.9989 703.084 42.9989H709.86C709.917 42.9989 709.962 43.0102 709.996 43.0554C710.041 43.1005 710.064 43.1457 710.064 43.2134V44.8056C710.064 44.862 710.041 44.9185 709.996 44.9524C709.962 44.9975 709.917 45.0201 709.86 45.0201H706.969C706.867 45.0201 706.777 45.054 706.709 45.1217C706.63 45.2008 706.596 45.2798 706.596 45.3702V53.5905C706.596 53.647 706.574 53.7035 706.528 53.7373C706.495 53.7712 706.438 53.7938 706.382 53.7938H704.541C704.405 53.7938 704.337 53.726 704.337 53.5905Z" fill="#D09A4B"/>
<path fill-rule="evenodd" clip-rule="evenodd" d="M667.054 48.9835C667.065 48.9157 667.077 48.848 667.077 48.7802C667.077 48.7576 667.077 48.735 667.088 48.7125C667.088 48.6673 667.088 48.6108 667.088 48.5544C667.099 48.5205 667.099 48.4866 667.099 48.4527C667.099 48.4076 667.099 48.3624 667.099 48.306C667.099 48.2608 667.099 48.2156 667.099 48.1817C667.099 48.1253 667.099 48.0801 667.088 48.035C667.088 48.0011 667.088 47.9559 667.088 47.922C667.088 47.8204 667.077 47.7188 667.065 47.6172C667.065 47.6059 667.054 47.5946 667.054 47.5833C667.032 47.3575 666.986 47.1316 666.93 46.9058C666.919 46.8606 666.907 46.8267 666.885 46.7929C666.885 46.759 666.862 46.7138 666.862 46.6799C666.84 46.6122 666.817 46.5332 666.783 46.4654C666.783 46.4541 666.783 46.4428 666.783 46.4428C666.749 46.3412 666.715 46.2509 666.67 46.1605C666.67 46.1492 666.67 46.1492 666.659 46.1379C666.569 45.9234 666.467 45.7089 666.354 45.5056C666.275 45.3475 666.151 45.2798 665.981 45.2798C665.959 45.2798 665.936 45.2798 665.925 45.2798C665.868 45.2911 665.801 45.3136 665.744 45.3588C665.676 45.3927 665.529 45.4943 665.292 45.6637C665.055 45.8331 664.897 45.9347 664.818 45.9912C664.694 46.0928 664.626 46.2057 664.626 46.3412C664.626 46.4428 664.648 46.5444 664.705 46.6574C664.965 47.1542 665.089 47.7075 665.089 48.2947C665.089 48.4753 665.078 48.6334 665.055 48.8028C665.055 48.8367 665.044 48.8705 665.044 48.9044C665.032 48.9496 665.021 48.9948 665.01 49.0399C664.999 49.1077 664.987 49.1754 664.965 49.2432C664.965 49.2545 664.965 49.2658 664.953 49.277C664.942 49.3335 664.92 49.4013 664.897 49.4577C664.886 49.4916 664.886 49.5142 664.874 49.5368C664.852 49.5932 664.829 49.6384 664.818 49.6835C664.795 49.7287 664.784 49.7626 664.761 49.7965C664.739 49.8642 664.705 49.9207 664.671 49.9771C664.66 49.9997 664.648 50.0223 664.637 50.0449C664.592 50.1126 664.558 50.1917 664.513 50.2594C664.502 50.2594 664.502 50.2707 664.502 50.2707C664.389 50.4288 664.276 50.5869 664.14 50.7337C664.072 50.8014 664.005 50.8805 663.926 50.9369C663.914 50.9482 663.914 50.9595 663.903 50.9595C663.835 51.0273 663.767 51.0724 663.7 51.1289C663.677 51.1402 663.666 51.1628 663.643 51.1741C663.485 51.287 663.316 51.3999 663.135 51.4902C662.796 51.6709 662.435 51.7838 662.062 51.8403C662.017 51.8516 661.972 51.8516 661.926 51.8516C661.847 51.8629 661.757 51.8741 661.667 51.8741C661.655 51.8741 661.644 51.8741 661.633 51.8741C661.509 51.8741 661.384 51.8741 661.271 51.8629C661.26 51.8629 661.249 51.8629 661.249 51.8629C661.215 51.8629 661.181 51.8629 661.158 51.8516C661.136 51.8516 661.125 51.8516 661.113 51.8516C661.034 51.8403 660.955 51.829 660.876 51.8064C660.865 51.8064 660.865 51.8064 660.865 51.8064C660.786 51.7951 660.707 51.7725 660.628 51.7499C660.594 51.7499 660.56 51.7386 660.537 51.7273C660.469 51.7048 660.413 51.6822 660.345 51.6709C660.323 51.6596 660.3 51.6483 660.266 51.637C659.939 51.5015 659.611 51.3208 659.306 51.0724C659.284 51.0498 659.261 51.0273 659.238 51.0047C658.843 50.6772 658.549 50.282 658.335 49.8078C658.12 49.3335 658.019 48.8367 658.019 48.306C658.019 48.2382 658.019 48.1705 658.019 48.1027C658.019 48.0688 658.03 48.035 658.03 48.0124C658.03 47.9559 658.03 47.9107 658.041 47.8543C658.052 47.8204 658.052 47.7752 658.064 47.7301V47.7188C658.086 47.5946 658.109 47.4704 658.143 47.3462C658.165 47.2784 658.188 47.2107 658.211 47.1429C658.222 47.109 658.233 47.0865 658.244 47.0526C658.312 46.8606 658.403 46.6687 658.504 46.4993C658.516 46.488 658.516 46.4767 658.516 46.4767C658.527 46.4541 658.538 46.4428 658.538 46.4315C658.561 46.3977 658.583 46.3751 658.606 46.3412C658.719 46.1605 658.866 45.9912 659.013 45.8331C659.024 45.8218 659.035 45.8105 659.046 45.7992C659.114 45.7314 659.182 45.675 659.25 45.6072C659.272 45.5959 659.295 45.5734 659.317 45.5508C659.363 45.5169 659.419 45.4717 659.464 45.4379C659.622 45.3249 659.792 45.212 659.973 45.1217C660.289 44.9523 660.605 44.8281 660.955 44.7716C661.068 44.7491 661.192 44.7378 661.305 44.7265C661.542 44.7039 661.78 44.7152 662.006 44.7378C662.017 44.7378 662.039 44.7378 662.051 44.7491C662.277 44.7716 662.491 44.8168 662.695 44.8846C662.909 44.9523 663.045 44.8959 663.124 44.7152L663.655 43.4844C663.677 43.3941 663.677 43.3037 663.655 43.2247C663.632 43.1456 663.575 43.0892 663.496 43.0553L663.474 43.044C663.056 42.8972 662.638 42.7956 662.22 42.7504H662.209C662.13 42.7391 662.051 42.7278 661.972 42.7278C661.949 42.7278 661.926 42.7278 661.915 42.7166C661.847 42.7166 661.78 42.7166 661.723 42.7166C661.701 42.7166 661.678 42.7166 661.655 42.7166C661.644 42.7166 661.633 42.7166 661.61 42.7166C661.554 42.7166 661.497 42.7166 661.441 42.7166C661.407 42.7166 661.362 42.7166 661.317 42.7166C661.294 42.7166 661.283 42.7166 661.26 42.7166C661.226 42.7166 661.181 42.7278 661.147 42.7278C661.136 42.7278 661.136 42.7278 661.125 42.7278C661.113 42.7278 661.113 42.7278 661.113 42.7278C661.102 42.7278 661.102 42.7278 661.102 42.7278C661 42.7391 660.899 42.7504 660.797 42.7617C660.741 42.773 660.684 42.7843 660.628 42.7843C660.594 42.7956 660.56 42.7956 660.526 42.8069C660.515 42.8069 660.492 42.8069 660.481 42.8182C660.447 42.8182 660.413 42.8295 660.39 42.8295C660.379 42.8295 660.379 42.8295 660.379 42.8408C660.368 42.8408 660.368 42.8408 660.357 42.8408C660.255 42.8633 660.165 42.8859 660.063 42.9085C660.029 42.9198 659.984 42.9311 659.95 42.9424C659.882 42.965 659.826 42.9876 659.758 43.0101C659.747 43.0101 659.735 43.0101 659.724 43.0214C659.713 43.0214 659.701 43.0327 659.679 43.0327C659.6 43.0666 659.521 43.0892 659.442 43.1231C659.397 43.1456 659.351 43.1682 659.306 43.1908C659.272 43.2021 659.227 43.2134 659.193 43.236C659.159 43.2473 659.114 43.2698 659.08 43.2924C658.391 43.6199 657.804 44.1054 657.296 44.7152C657.251 44.7716 657.217 44.8281 657.172 44.8733C657.16 44.8959 657.149 44.9184 657.138 44.9297C656.787 45.3814 656.528 45.8669 656.347 46.3977C656.211 46.7816 656.132 47.1655 656.076 47.5494C656.065 47.6849 656.053 47.8204 656.042 47.9559C656.031 48.1253 656.031 48.2947 656.031 48.4753C656.042 49.3109 656.234 50.1013 656.607 50.8579C656.878 51.4338 657.239 51.9419 657.714 52.3823C657.759 52.4274 657.793 52.4613 657.838 52.4952C657.894 52.5404 657.951 52.5855 657.996 52.6307C658.064 52.6759 658.12 52.721 658.177 52.7662C658.211 52.8001 658.244 52.8339 658.29 52.8565C658.335 52.8904 658.38 52.913 658.425 52.9469C658.448 52.9694 658.47 52.9807 658.493 53.0033C658.549 53.0372 658.606 53.0711 658.674 53.1049C658.685 53.1162 658.696 53.1275 658.708 53.1388C658.787 53.184 658.877 53.2291 658.956 53.2743C659.001 53.2969 659.035 53.3082 659.08 53.3308C659.103 53.3421 659.114 53.3534 659.137 53.3646C659.227 53.3985 659.306 53.4437 659.385 53.4776C659.397 53.4776 659.408 53.4776 659.408 53.4889C659.487 53.5114 659.555 53.5453 659.634 53.5679C659.679 53.5905 659.724 53.6018 659.769 53.6131C659.826 53.6357 659.871 53.6469 659.927 53.6695C660.04 53.7034 660.153 53.726 660.266 53.7599C660.3 53.7599 660.323 53.7712 660.357 53.7712C660.492 53.805 660.628 53.8276 660.774 53.8502H660.786C660.797 53.8502 660.797 53.8502 660.808 53.8502C660.944 53.8728 661.091 53.8841 661.238 53.8954C661.26 53.8954 661.283 53.8954 661.305 53.8954C661.373 53.8954 661.452 53.9067 661.52 53.9067H661.531C661.588 53.9067 661.644 53.8954 661.701 53.8954C661.712 53.8954 661.734 53.8954 661.757 53.8954C661.836 53.8954 661.915 53.8954 662.006 53.8841C662.017 53.8841 662.039 53.8841 662.051 53.8841C662.198 53.8728 662.344 53.8502 662.48 53.8276H662.491C662.503 53.8276 662.525 53.8163 662.536 53.8163C662.593 53.805 662.649 53.7937 662.717 53.7824C662.751 53.7712 662.785 53.7599 662.819 53.7599C662.909 53.7373 662.988 53.7147 663.079 53.6921C663.124 53.6808 663.169 53.6695 663.225 53.6469C663.282 53.6357 663.338 53.6131 663.395 53.5905C663.406 53.5905 663.417 53.5905 663.429 53.5792H663.44C663.508 53.5566 663.564 53.534 663.632 53.5114C663.655 53.5002 663.688 53.4776 663.722 53.4663C663.756 53.455 663.801 53.4324 663.847 53.4211C663.869 53.4098 663.892 53.3985 663.914 53.3872C664.671 53.0372 665.304 52.5404 665.812 51.8967C666.23 51.3886 666.557 50.824 666.772 50.2143C666.885 49.8868 666.975 49.548 667.02 49.198C667.032 49.1641 667.032 49.1303 667.043 49.0964C667.043 49.0625 667.054 49.0286 667.054 48.9835Z" fill="#D09A4B"/>
<path fill-rule="evenodd" clip-rule="evenodd" d="M677.773 42.9764C677.716 42.9313 677.649 42.9087 677.57 42.9087H676.067C675.988 42.9087 675.921 42.9313 675.864 42.9877C675.808 43.0442 675.785 43.1119 675.785 43.1797V43.2249V44.3766L675.796 47.877H675.808L675.819 49.3224C675.819 49.345 675.819 49.3788 675.808 49.4127C675.808 49.4579 675.796 49.4805 675.774 49.4805C675.751 49.4805 675.706 49.4466 675.649 49.3676C675.186 48.6223 674.497 47.5496 673.571 46.1381C672.656 44.7154 672.001 43.6878 671.595 43.0668C671.516 42.9539 671.471 42.9087 671.471 42.9087H671.346H671.335H671.324H669.901C669.81 42.9087 669.742 42.9313 669.686 42.9877C669.63 43.0329 669.607 43.1007 669.607 43.191V43.2813C669.618 43.3039 669.641 43.3152 669.652 43.3378L671.99 47.1883C672.024 47.2334 672.069 47.2899 672.103 47.3802L672.408 47.877L673.266 49.2885C673.289 49.3111 673.3 49.345 673.312 49.3676L675.864 53.6245C675.921 53.681 675.977 53.7149 676.056 53.7149H677.57C677.649 53.7149 677.716 53.681 677.773 53.6245C677.829 53.5681 677.863 53.5003 677.863 53.4213V47.877V44.546V44.3314V44.004V43.1797C677.863 43.1007 677.829 43.0329 677.773 42.9764Z" fill="#D09A4B"/>
<path fill-rule="evenodd" clip-rule="evenodd" d="M671.809 50.203L669.607 46.6235V53.4099C669.607 53.5002 669.63 53.5679 669.686 53.6244C669.742 53.6809 669.81 53.7034 669.901 53.7034H671.561C671.629 53.7034 671.696 53.6809 671.753 53.6244C671.809 53.5679 671.832 53.5002 671.832 53.4099V50.2369C671.821 50.2256 671.809 50.2143 671.809 50.203Z" fill="#D09A4B"/>
<path fill-rule="evenodd" clip-rule="evenodd" d="M650.146 53.6245V52.0323C650.146 51.9646 650.179 51.9194 650.247 51.9194H651.094C651.467 51.9194 651.772 51.7839 652.032 51.5242C652.28 51.2532 652.404 50.937 652.404 50.5644C652.404 50.1918 652.382 49.5482 652.122 49.2997C651.862 49.04 651.456 48.8142 651.094 48.8142H650.292C650.191 48.8142 650.146 48.7577 650.146 48.6561V47.0301C650.146 47.0188 650.157 46.9962 650.168 46.9624C650.191 46.9398 650.213 46.9285 650.247 46.9285H650.462C650.914 46.8833 651.027 46.8946 651.196 46.5671C651.32 46.33 651.298 46.3187 651.298 45.9687C651.298 45.2009 651.106 45.1331 651.015 45.0541C650.722 44.7831 650.281 44.7492 649.92 44.7492H648.971C648.824 44.7492 648.7 44.8056 648.587 44.9073C648.485 45.0089 648.429 45.1331 648.429 45.2799V53.6019C648.429 53.6358 648.418 53.6584 648.384 53.6809C648.361 53.7035 648.338 53.7148 648.316 53.7148H646.802C646.723 53.7148 646.689 53.6809 646.689 53.6019V42.999C646.689 42.9312 646.723 42.8973 646.802 42.8973H649.92C650.507 42.8973 651.038 43.0328 651.523 43.3151C652.009 43.5974 652.393 43.9813 652.676 44.4669C652.958 44.9524 653.105 45.4831 653.105 46.059C653.105 46.6575 652.935 47.2221 652.608 47.7528C653.127 48.0351 653.534 48.4416 653.828 48.9497C654.133 49.4465 654.279 49.9885 654.279 50.5644C654.279 51.1403 654.133 51.671 653.85 52.1566C653.568 52.6421 653.184 53.026 652.687 53.3083C652.201 53.5906 651.67 53.7374 651.094 53.7374H650.247C650.179 53.7374 650.146 53.6922 650.146 53.6245Z" fill="#D09A4B"/>
<path fill-rule="evenodd" clip-rule="evenodd" d="M699.707 53.6472C699.64 53.6021 699.606 53.5569 699.583 53.4892L698.917 50.9937C698.883 50.9034 698.826 50.8243 698.747 50.7566C698.657 50.7001 698.578 50.6662 698.488 50.6662H695.348C695.269 50.6662 695.212 50.6436 695.167 50.5985C695.122 50.5533 695.099 50.4969 695.099 50.4404L695.63 48.8821C695.63 48.8144 695.653 48.7579 695.698 48.7128C695.743 48.6563 695.799 48.6337 695.89 48.6337H697.9C697.991 48.6337 698.07 48.5998 698.126 48.5321C698.183 48.4643 698.194 48.3853 698.16 48.2837L697.302 45.1333C697.279 45.0542 697.223 44.9865 697.143 44.9187C697.064 44.8623 696.974 44.8284 696.884 44.8284H696.771C696.692 44.8284 696.613 44.8623 696.522 44.9187C696.443 44.9865 696.398 45.0542 696.375 45.1333L695.879 46.8948C695.867 46.9625 695.822 47.0077 695.754 47.0303C695.698 47.0642 695.641 47.0529 695.562 47.0529L694.038 47.0077C693.97 46.9964 693.925 46.9625 693.891 46.8948C693.857 46.8383 693.857 46.7706 693.868 46.7141L694.839 43.1459C694.851 43.0895 694.896 43.033 694.964 42.9766C695.031 42.9314 695.099 42.9088 695.156 42.9088H698.488C698.544 42.9088 698.612 42.9314 698.691 42.9766C698.759 43.0217 698.804 43.0782 698.826 43.1346L701.673 53.5117V53.5343C701.673 53.6585 701.616 53.7263 701.492 53.7263H699.911C699.843 53.7263 699.775 53.7037 699.707 53.6472Z" fill="#D09A4B"/>
<path fill-rule="evenodd" clip-rule="evenodd" d="M671.232 59.1348C670.826 57.8024 669.245 57.6894 668.364 57.8701C662.163 59.1687 653.692 70.0426 655.838 76.908C656.358 78.5678 657.645 79.2115 659.475 78.9631C664.67 78.263 671.763 65.955 673.006 66.5422C673.39 66.7228 672.735 65.6953 671.707 65.7179C672.034 65.5824 673.457 65.4243 674.338 65.4581C674.169 65.1984 672.26 64.9726 670.182 65.413C668.702 65.7179 661.847 67.8407 662.344 69.4667C662.536 70.0878 663.383 70.6185 663.326 70.4378C663.055 69.5345 667.347 67.0954 670.769 65.9663C668.657 69.2748 663.688 76.3998 659.881 77.5742C658.278 78.0823 657.645 77.3596 657.385 76.2643C655.985 70.5733 663.473 59.2816 668.398 58.254C669.188 58.0847 670.114 58.2879 670.363 59.0896C670.848 60.6818 668.838 63.1546 667.562 63.4256C667.46 63.4482 667.709 62.5788 667.776 62.4207C667.313 62.7707 666.884 63.6289 667.008 64.0467C667.099 64.3177 667.697 64.7468 668.115 64.6564C670.058 64.2499 671.876 61.235 671.232 59.1348ZM674.011 70.3588C676.01 69.8732 678.653 66.5083 678.314 65.3565C678.156 64.8484 677.196 64.6 676.936 64.6564C676.157 64.8145 674.734 65.7179 673.627 67.31C672.791 68.5182 672.226 69.8732 672.113 71.0024C672.091 71.4428 672.091 71.8267 672.226 72.2671C672.373 72.7639 673.299 73.272 673.853 73.1591C675.773 72.7526 677.761 69.941 678.969 68.044C678.608 69.6925 678.529 70.6072 678.642 70.9685C678.698 71.1605 678.743 71.1943 678.777 71.2282C678.969 71.4766 679.477 71.7815 679.647 71.8267C679.839 71.8831 680.042 71.917 680.245 71.7815C680.821 71.4089 681.782 69.8732 682.595 68.4166C682.448 69.015 682.425 69.557 682.55 69.9635C682.662 70.3362 683.34 70.9346 683.713 71.0363C683.758 71.0363 683.86 71.0588 683.894 71.0476C684.65 70.8895 687.214 67.0729 687.587 66.3954C687.384 66.9374 687.158 67.8859 687.146 68.6085C687.158 68.9021 687.158 69.1393 687.214 69.3199C687.316 69.6474 687.768 69.9635 688.073 70.0539C688.219 70.1103 688.321 70.1216 688.411 70.099C689.213 69.9297 690.535 67.8407 691.574 65.9098C691.325 67.2309 691.28 67.9762 691.371 68.2924C691.438 68.4956 691.484 68.5182 691.517 68.5521C691.709 68.8118 692.218 69.1054 692.387 69.1505C692.568 69.207 692.771 69.2409 692.986 69.1054C693.562 68.7215 694.556 67.118 695.38 65.6275C695.346 66.1244 695.391 66.6438 695.538 67.1293C695.742 67.8181 696.498 68.4053 697.345 68.2811C699.277 67.9988 702.191 64.5661 701.942 62.0255C701.829 58.6154 698.249 61.0431 700.655 62.3868C700.022 64.5096 698.339 67.9988 697.21 67.7842C696.069 67.5584 697.944 60.5801 701.197 59.8913C701.321 59.8687 701.479 59.8687 701.66 59.8575C701.728 59.8349 701.784 59.8236 701.682 59.7897C701.524 59.7107 701.174 59.5639 700.485 59.7107C698.407 60.151 696.216 62.319 695.561 64.6339C694.635 66.1357 693.404 68.0327 692.828 68.0891C692.895 66.8244 693.539 64.1935 694.364 61.4496C694.748 60.2075 695.064 59.1687 695.47 58.1863C698.339 57.1023 701.615 56.3909 705.274 55.9505C705.489 55.9279 705.41 55.9054 705.251 55.8941C702.518 55.8828 698.678 56.5377 695.832 57.2942C696.306 56.086 696.916 54.3923 697.571 54.5503C697.978 54.6746 696.939 53.7712 695.945 54.0309C695.787 54.0648 695.595 54.2568 695.391 54.5391C695.053 55.002 694.736 55.6908 693.901 57.8588C691.958 58.5137 690.139 59.4397 690.456 60.2527C690.693 60.8285 691.416 61.0544 691.698 60.9866C691.145 60.8173 691.935 59.7107 693.539 58.9993C693.155 60.0381 692.873 60.9528 692.613 61.8109C692.252 63.0643 691.98 64.1144 691.777 64.9839C690.885 66.4518 689.552 68.5069 688.728 68.9586C688.682 68.8118 688.694 68.586 688.716 68.3037C688.897 67.0164 689.914 64.6677 690.06 64.8258C690.06 64.5887 689.146 63.7079 688.841 63.9676C688.468 64.3177 687.655 65.7292 687.417 66.0905C686.729 67.0954 684.775 69.478 684.244 69.8055C684.199 69.8393 684.165 69.8393 684.119 69.8393C683.927 69.7716 684.571 67.1858 685.825 65.3226C686.695 64.0693 687.768 63.0304 688.795 62.7481C689.326 62.6013 689.744 62.8046 689.914 63.3579C689.993 63.6289 689.959 63.8773 689.914 64.058C689.902 64.0806 689.947 64.0919 689.981 64.0693C690.083 63.787 690.151 63.4482 690.06 63.1321C689.789 62.2739 688.807 62.161 688.118 62.3078C686.412 62.6691 684.808 64.1709 683.758 65.8195C683.747 65.8308 683.735 65.8308 683.735 65.8421C682.967 67.0729 680.901 70.6862 680.087 70.754C680.155 69.4893 680.81 66.8809 681.635 64.1144C682.132 62.5901 682.538 61.3593 683.001 60.1849C683.487 59.0219 684.131 57.0571 684.854 57.2152C685.249 57.3507 684.21 56.4361 683.216 56.7071C683.058 56.7409 682.866 56.9329 682.662 57.2039C682.335 57.6669 682.007 58.3669 681.68 59.1912C681.126 60.6366 680.46 62.4771 679.884 64.4871C679.568 65.5824 679.319 66.5422 679.127 67.3439C677.727 69.2748 675.57 71.9396 674.384 72.188C673.988 72.2671 673.785 72.1767 673.74 71.9509C673.649 71.4653 673.808 70.8104 674.011 70.3588ZM677.625 65.0968C677.727 65.8195 675.649 69.4215 674.135 69.941C674.44 68.8457 675.829 66.1808 677.625 65.0968Z" fill="#D09A4B"/>
</svg>
